<svg width="513" height="500" viewBox="0 0 513 500" fill="none" xmlns="http://www.w3.org/2000/svg">
    <rect width="500" height="500" transform="translate(6)" fill="white"/>
    <path d="M513 392.296H0V392.547H513V392.296Z" fill="#E6E6E6"/>
    <path d="M128.065 407.465H94.0842V407.716H128.065V407.465Z" fill="#E6E6E6"/>
    <path d="M83.3318 407.465H63.6428V407.716H83.3318V407.465Z" fill="#E6E6E6"/>
    <path d="M216.024 411.155H196.335V411.406H216.024V411.155Z" fill="#E6E6E6"/>
    <path d="M318.686 416.749H274.373V417H318.686V416.749Z" fill="#E6E6E6"/>
    <path d="M265.242 416.749H258.747V417H265.242V416.749Z" fill="#E6E6E6"/>
    <path d="M465.137 411.155H369.021V411.406H465.137V411.155Z" fill="#E6E6E6"/>
    <path d="M243.172 347.581H45.062C41.8301 347.581 39.2035 345.014 39.2035 341.856V69.7248C39.2035 66.5666 41.8301 64 45.062 64H243.183C246.414 64 249.041 66.5666 249.041 69.7248V341.856C249.031 345.014 246.404 347.581 243.172 347.581ZM45.062 64.2506C41.9737 64.2506 39.46 66.707 39.46 69.7248V341.856C39.46 344.874 41.9737 347.33 45.062 347.33H243.183C246.271 347.33 248.785 344.874 248.785 341.856V69.7248C248.785 66.707 246.271 64.2506 243.183 64.2506H45.062Z" fill="#E6E6E6"/>
    <path d="M465.096 347.581H266.975C263.743 347.581 261.117 345.014 261.117 341.856V69.7248C261.117 66.5666 263.743 64 266.975 64H465.096C468.328 64 470.954 66.5666 470.954 69.7248V341.856C470.954 345.014 468.328 347.581 465.096 347.581ZM266.975 64.2506C263.887 64.2506 261.373 66.707 261.373 69.7248V341.856C261.373 344.874 263.887 347.33 266.975 347.33H465.096C468.184 347.33 470.698 344.874 470.698 341.856V69.7248C470.698 66.707 468.184 64.2506 465.096 64.2506H266.975Z" fill="#E6E6E6"/>
    <path d="M274.352 306.646H251.791V394.101H274.352V306.646Z" fill="#E0E0E0"/>
    <path d="M270.064 394.111H274.352V382.2H265.57L270.064 394.111Z" fill="#FAFAFA"/>
    <path d="M175.487 306.646H152.925V394.101H175.487V306.646Z" fill="#E0E0E0"/>
    <path d="M274.352 306.646H171.752V386.792H274.352V306.646Z" fill="#FAFAFA"/>
    <path d="M270.628 310.586V331.79H175.467V310.586H270.628V310.586ZM271.028 310.205H175.077V332.181H271.028V310.205Z" fill="#E0E0E0"/>
    <path d="M176.041 394.111H171.752V382.2H180.525L176.041 394.111Z" fill="#FAFAFA"/>
    <path d="M220.785 321.193C220.785 322.416 221.801 323.409 223.052 323.409C224.304 323.409 225.32 322.416 225.32 321.193C225.32 319.97 224.304 318.977 223.052 318.977C221.801 318.977 220.785 319.97 220.785 321.193Z" fill="#E6E6E6"/>
    <path d="M270.628 336.122V357.326H175.467V336.122H270.628ZM271.028 335.741H175.077V357.717H271.028V335.741Z" fill="#E0E0E0"/>
    <path d="M220.785 346.729C220.785 347.952 221.801 348.945 223.052 348.945C224.304 348.945 225.32 347.952 225.32 346.729C225.32 345.506 224.304 344.513 223.052 344.513C221.801 344.513 220.785 345.506 220.785 346.729Z" fill="#E6E6E6"/>
    <path d="M270.628 361.657V382.862H175.467V361.657H270.628ZM271.028 361.266H175.077V383.243H271.028V361.266Z" fill="#E0E0E0"/>
    <path d="M220.785 372.255C220.785 373.478 221.801 374.47 223.052 374.47C224.304 374.47 225.32 373.478 225.32 372.255C225.32 371.031 224.304 370.039 223.052 370.039C221.801 370.039 220.785 371.031 220.785 372.255Z" fill="#E6E6E6"/>
    <path d="M161.708 255.855H139.146V394.111H161.708V255.855Z" fill="#E0E0E0"/>
    <path d="M157.419 394.111H161.708V382.2H152.925L157.419 394.111Z" fill="#FAFAFA"/>
    <path d="M77.3912 255.855H54.8295V394.111H77.3912V255.855Z" fill="#E0E0E0"/>
    <path d="M161.708 255.855H73.6464V386.802H161.708V255.855Z" fill="#FAFAFA"/>
    <path d="M157.912 259.564V289.211H77.4425V259.564H157.912ZM158.384 259.113H76.9706V289.672H158.384V259.113Z" fill="#E0E0E0"/>
    <path d="M157.912 292.82V371.463H119.58V292.82H157.912V292.82ZM158.384 292.359H119.119V371.914H158.384V292.359Z" fill="#E0E0E0"/>
    <path d="M115.774 292.82V371.463H77.4425V292.82H115.774V292.82ZM116.236 292.359H76.9706V371.914H116.236V292.359V292.359Z" fill="#E0E0E0"/>
    <path d="M77.935 394.111H73.6464V382.2H82.4289L77.935 394.111Z" fill="#FAFAFA"/>
    <path d="M115.404 274.392C115.404 275.616 116.42 276.608 117.672 276.608C118.924 276.608 119.939 275.616 119.939 274.392C119.939 273.169 118.924 272.177 117.672 272.177C116.42 272.177 115.404 273.169 115.404 274.392Z" fill="#E6E6E6"/>
    <path d="M123.53 330.256C123.53 331.48 124.546 332.472 125.798 332.472C127.05 332.472 128.065 331.48 128.065 330.256C128.065 329.033 127.05 328.041 125.798 328.041C124.546 328.041 123.53 329.033 123.53 330.256Z" fill="#E6E6E6"/>
    <path d="M107.289 330.256C107.289 331.48 108.305 332.472 109.556 332.472C110.808 332.472 111.824 331.48 111.824 330.256C111.824 329.033 110.808 328.041 109.556 328.041C108.305 328.041 107.289 329.033 107.289 330.256Z" fill="#E6E6E6"/>
    <path d="M104.724 217.315H95.2128C95.2128 217.315 96.8647 225.907 96.8647 230.97C96.8647 236.033 89.6211 255.865 99.9735 255.865C110.316 255.865 103.082 236.033 103.082 230.97C103.072 225.907 104.724 217.315 104.724 217.315Z" fill="#E0E0E0"/>
    <path d="M68.5367 237.648V243.693C68.5367 250.39 74.1387 255.865 80.9924 255.865H87.1792C94.0328 255.865 99.6348 250.39 99.6348 243.693V237.648H68.5367V237.648Z" fill="#F5F5F5"/>
    <path d="M200.757 293.903C200.757 300.911 208.791 306.646 218.61 306.646H227.474C237.293 306.646 245.327 300.911 245.327 293.903H200.757Z" fill="#E0E0E0"/>
    <path d="M435.65 283.646C430.274 287.937 422.856 295.788 416.053 306.836C411.529 314.195 408.799 321.905 407.599 332.091C407.63 320.561 407.661 308.179 407.702 296.489C409.066 293.482 412.185 286.544 414.422 281.07C421.891 262.792 424.672 258.301 431.382 242.53C440.339 221.506 449.511 196.552 446.885 198.547C441.529 202.607 421.009 240.154 418.793 245.528C411.159 264.016 409.035 277.49 407.722 290.494C407.763 279.516 407.804 269.43 407.845 261.65C407.979 236.274 408.42 228.083 408.635 225.556C409.466 224.273 410.441 222.779 411.016 221.967C415.838 215.16 417.695 209.355 422.24 199.199C428.673 184.801 434.224 159.246 432.603 160.539C425.852 165.903 420.537 177.442 413.54 192.15C406.542 206.848 408.543 215.31 407.158 227.862C406.871 230.329 406.645 239.623 406.481 252.516C404.665 238.781 401.269 229.737 395.061 221.516C387.428 211.4 380.041 204.572 374.623 201.003C369.206 197.434 383.98 222.278 391.05 233.126C397.339 242.781 403.136 251.303 406.409 259.694C406.234 277.16 406.152 299.277 406.152 319.87C404.531 310.495 401.884 300.409 398.355 292.599C394.107 283.215 387.582 268.818 382.39 263.925C381.138 262.752 387.828 290.755 392.117 298.204C396.405 305.653 399.555 312.671 402.254 316.892C402.879 317.874 404.972 321.674 406.163 323.86C406.173 348.995 406.306 371.172 406.532 378.721H407.64C407.568 376.776 407.548 363.983 407.578 347.06C410.256 337.876 416.371 327.389 421.429 317.824C426.929 307.367 441.026 279.355 435.65 283.646Z" fill="#E0E0E0"/>
    <path d="M423.163 394.111H391.009L388.577 363.312H425.595L423.163 394.111Z" fill="#F0F0F0"/>
    <path d="M427.986 366.901H386.186L384.986 356.504H429.186L427.986 366.901Z" fill="#F5F5F5"/>
    <path d="M127.491 84.5931H69.9835V146.302H127.491V84.5931Z" fill="#E0E0E0"/>
    <path d="M133.719 84.5931H74.3134V146.302H133.719V84.5931Z" fill="#F5F5F5"/>
    <path d="M128.744 141.447V89.4633L79.2905 89.4633V141.447H128.744Z" fill="white"/>
    <path d="M116.76 128.835V102.056H91.2844V128.835H116.76Z" fill="#F5F5F5"/>
    <path d="M420.711 91.7916H367.287V149.119H420.711V91.7916Z" fill="#E0E0E0"/>
    <path d="M426.498 91.7916H371.32V149.119H426.498V91.7916Z" fill="#F5F5F5"/>
    <path d="M421.877 144.608V96.3132L375.943 96.3132V144.608H421.877Z" fill="white"/>
    <path d="M398.909 134.462C406.825 134.462 413.242 128.191 413.242 120.456C413.242 112.72 406.825 106.449 398.909 106.449C390.993 106.449 384.576 112.72 384.576 120.456C384.576 128.191 390.993 134.462 398.909 134.462Z" fill="#F5F5F5"/>
    <path d="M187.235 121.388H144.574V167.166H187.235V121.388Z" fill="#E0E0E0"/>
    <path d="M191.852 121.388H147.785V167.166H191.852V121.388Z" fill="#F5F5F5"/>
    <path d="M188.16 163.562V125.002H151.481V163.562H188.16Z" fill="white"/>
    <path d="M169.824 134.532L159.789 151.516H179.858L169.824 134.532Z" fill="#F5F5F5"/>
    <path d="M263 436.61C370.082 436.61 456.89 431.542 456.89 425.29C456.89 419.038 370.082 413.97 263 413.97C155.917 413.97 69.11 419.038 69.11 425.29C69.11 431.542 155.917 436.61 263 436.61Z" fill="#F5F5F5"/>
    <path d="M362.25 172.48L352.33 168.46C352.33 168.46 339.24 192.33 335.49 193.54C330.39 195.18 319.84 199.74 313.57 200.59C312.72 201.58 311.33 204.69 311.46 205.83C319.87 208.63 338.35 204.91 342.31 201.97C351.32 195.27 362.25 172.48 362.25 172.48Z" fill="#E58A7B"/>
    <path d="M365.3 167.06C367.15 173.9 357.13 187.64 357.13 187.64L343.97 180.26C343.97 180.26 346.42 174.61 349.43 168.86C354.27 159.57 363.19 159.26 365.3 167.06Z" fill="#407BFF"/>
    <path opacity="0.2" d="M365.3 167.06C367.15 173.9 357.13 187.64 357.13 187.64L343.97 180.26C343.97 180.26 346.42 174.61 349.43 168.86C354.27 159.57 363.19 159.26 365.3 167.06Z" fill="black"/>
    <path opacity="0.2" d="M349.21 183.2L354.38 186.1L355.28 170.23C352.28 172.54 350.16 179.5 349.21 183.2Z" fill="black"/>
    <path d="M356.66 161.91C356.66 161.91 346.44 184.65 352.4 226.99C364.53 226.99 386.77 226.99 392.67 226.99C393.31 220.81 391.19 190.65 398.86 161.53C398.86 161.53 392.04 160.14 385.48 159.83C380.35 159.58 372.91 159.42 368.36 159.83C362.37 160.36 356.66 161.91 356.66 161.91Z" fill="#407BFF"/>
    <path opacity="0.2" d="M356.66 161.91C356.66 161.91 346.44 184.65 352.4 226.99C364.53 226.99 386.77 226.99 392.67 226.99C393.31 220.81 391.19 190.65 398.86 161.53C398.86 161.53 392.04 160.14 385.48 159.83C380.35 159.58 372.91 159.42 368.36 159.83C362.37 160.36 356.66 161.91 356.66 161.91Z" fill="black"/>
    <path d="M347.32 426.19C347.26 427.26 362.53 428.13 381.42 428.13C400.31 428.13 415.69 427.26 415.75 426.19C415.81 425.12 400.55 424.25 381.65 424.25C362.76 424.24 347.39 425.12 347.32 426.19Z" fill="#E8ECF1"/>
    <path d="M375.145 399.21L367.979 401.971L374.123 417.918L381.289 415.157L375.145 399.21Z" fill="#E58A7B"/>
    <path d="M406.05 418.5H398.52L395.76 401.07H403.29L406.05 418.5Z" fill="#E58A7B"/>
    <path d="M398.04 417.63H406.5C406.81 417.63 407.06 417.84 407.11 418.14L408.2 424.83C408.31 425.52 407.73 426.18 407.02 426.17C404.07 426.12 402.65 425.95 398.93 425.95C396.64 425.95 391.91 426.19 388.75 426.19C385.66 426.19 385.36 423.07 386.67 422.78C392.55 421.51 394.83 419.76 396.79 418.09C397.14 417.79 397.59 417.63 398.04 417.63Z" fill="#263238"/>
    <path d="M372.97 414.99L380.99 412.66C381.29 412.57 381.6 412.7 381.73 412.97L384.7 418.97C385.01 419.59 384.64 420.37 383.95 420.56C381.05 421.35 379.09 421.85 375.45 422.91C372.94 423.64 370.38 424.83 367.9 425.62C366.18 426.17 362.14 426.19 360.05 426.19C356.96 426.19 356.27 422.93 357.59 422.78C360.94 422.4 361.39 422.58 363.24 421.65C366.3 420.11 368.67 418.84 371.32 416.07C371.8 415.59 372.34 415.18 372.97 414.99Z" fill="#263238"/>
    <path d="M314.83 200.52L306.55 197.03L303.14 206.21C303.14 206.21 307.92 207.08 313.38 206.21L314.83 200.52Z" fill="#E58A7B"/>
    <path d="M300.39 196.81L300.17 202.91L303.14 206.21L306.55 197.03L300.39 196.81Z" fill="#E58A7B"/>
    <path d="M375.165 399.191L368 401.956L371.173 410.175L378.338 407.41L375.165 399.191Z" fill="#CF6F64"/>
    <path d="M403.29 401.07H395.76L397.19 410.06H404.72L403.29 401.07Z" fill="#CF6F64"/>
    <path opacity="0.2" d="M351.12 215.53C351.26 217.34 351.44 219.19 351.65 221.09L381.59 211.37C386.27 209.97 390.33 207.03 393.11 203.02C393.22 200.35 393.38 197.54 393.6 194.61C393.7 193.18 393.83 191.72 393.96 190.24C394.1 188.7 394.27 187.13 394.45 185.54L351.12 215.53Z" fill="black"/>
    <path d="M360.9 182.74L359.88 182.62C360.47 177.63 364.2 173.69 368.13 173.78L368.1 174.81C364.71 174.7 361.43 178.26 360.9 182.74Z" fill="white"/>
    <path d="M366.23 191.97C366.17 191.97 366.12 191.97 366.06 191.97L366.09 190.94C369.53 191.07 372.76 187.48 373.29 183.01L374.31 183.13C373.73 188.05 370.12 191.97 366.23 191.97Z" fill="white"/>
    <path d="M384.92 140.54C383.52 146.05 381.85 156.14 385.49 159.82C385.49 159.82 382.95 165.41 372.71 165.41C363.36 165.41 368.37 159.82 368.37 159.82C374.6 158.35 374.71 153.8 373.89 149.52L384.92 140.54Z" fill="#E58A7B"/>
    <path d="M380.42 144.21L373.89 149.52C374.09 150.53 374.23 151.56 374.24 152.56C376.15 154.46 379.98 149.65 380.37 147.19C380.57 145.95 380.59 144.78 380.42 144.21Z" fill="#CF6F64"/>
    <path d="M362.66 140.48C363.62 142.19 365.31 143.26 366.9 143.62C369.3 144.15 370.51 141.95 369.85 139.72C369.25 137.72 367.29 135.03 364.87 135.49C362.5 135.94 361.57 138.52 362.66 140.48Z" fill="#CF6F64"/>
    <path d="M366.63 122.85C362.89 124.56 361.57 139.42 366.27 141.62C370.97 143.81 373.71 119.6 366.63 122.85Z" fill="#263238"/>
    <path d="M386.06 132.26C385.16 139.72 385.02 144.11 381.03 147.93C375.03 153.69 366.02 150.27 364.68 142.83C363.47 136.13 365.14 125.06 372.61 122.09C379.97 119.16 386.95 124.8 386.06 132.26Z" fill="#E58A7B"/>
    <path d="M373.77 126.71C379.3 125.29 383.37 124.33 381.92 128.95C379.98 135.1 377.66 141.06 380.78 141.34C382.67 141.51 391.08 137.94 390.01 134.34C389.08 131.2 392.99 130.35 393.71 128.75C396.3 122.98 388.89 123.73 390.21 120.24C391.49 116.84 384.24 111.1 380.22 113.91C373.71 118.45 362.54 118.39 368.41 110.94C372.62 105.61 365.11 106.7 365.11 106.7C365.11 106.7 369.65 109.39 362.01 113.55C353.92 117.96 361.33 129.9 373.77 126.71Z" fill="#263238"/>
    <path d="M388.95 140.48C387.79 142.19 385.98 143.26 384.34 143.62C381.88 144.15 380.93 141.95 381.85 139.72C382.68 137.72 384.96 135.03 387.32 135.49C389.64 135.94 390.27 138.52 388.95 140.48Z" fill="#E58A7B"/>
    <path d="M352.4 226.99C352.4 226.99 345.64 287.49 345.11 310.45C344.56 334.33 368.02 408.84 368.02 408.84L380.03 403.8C380.03 403.8 366.05 335.73 367.99 312.27C370.11 286.7 378.87 226.99 378.87 226.99H352.4V226.99Z" fill="#407BFF"/>
    <path opacity="0.2" d="M369.2 243.6C363.82 254.78 367.44 276.88 370.36 289.99C371.47 280.74 372.79 270.7 374.04 261.41C373.92 247.12 372.81 236.1 369.2 243.6Z" fill="black"/>
    <path d="M379.49 399.87C379.55 399.85 380.91 403.7 380.91 403.7L367.07 409.51L364.89 405.45L379.49 399.87Z" fill="#407BFF"/>
    <path d="M366.69 226.99C366.69 226.99 371.86 284.53 375.29 306.08C379.04 329.69 393.79 408.32 393.79 408.32H407.58C407.58 408.32 399.32 331.6 397.76 308.22C396.07 282.85 392.69 226.99 392.69 226.99H366.69Z" fill="#407BFF"/>
    <path d="M407.78 404.72C407.84 404.72 408.24 408.57 408.24 408.57H393.08L392 404.15L407.78 404.72Z" fill="#407BFF"/>
    <path opacity="0.2" d="M402.5 400.17C402.43 400.17 402.38 400.12 402.37 400.06C402.29 399.36 394.84 330.09 393.44 309.1C391.92 286.31 388.86 235.79 388.83 235.28C388.83 235.21 388.88 235.15 388.95 235.14H388.96C389.03 235.14 389.08 235.19 389.09 235.26C389.12 235.77 392.18 286.29 393.7 309.08C395.1 330.07 402.55 399.34 402.63 400.03C402.64 400.1 402.59 400.16 402.52 400.17C402.51 400.17 402.5 400.17 402.5 400.17Z" fill="black"/>
    <path d="M374.62 134.34C374.58 134.95 374.23 135.44 373.84 135.44C373.44 135.44 373.15 134.95 373.19 134.34C373.23 133.73 373.58 133.24 373.97 133.24C374.37 133.24 374.66 133.73 374.62 134.34Z" fill="#263238"/>
    <path d="M367.76 134.34C367.72 134.95 367.37 135.44 366.98 135.44C366.59 135.44 366.29 134.95 366.33 134.34C366.37 133.73 366.72 133.24 367.11 133.24C367.5 133.24 367.8 133.73 367.76 134.34Z" fill="#263238"/>
    <path d="M369.92 134.64C369.92 134.64 368.33 138.14 366.71 139.83C367.73 140.83 369.58 140.37 369.58 140.37L369.92 134.64Z" fill="#DF5753"/>
    <path d="M370.1 142.93C370 142.93 369.93 142.85 369.93 142.75C369.94 142.65 370.02 142.57 370.12 142.57C372.79 142.57 374.14 140.71 374.15 140.69C374.21 140.61 374.32 140.58 374.4 140.64C374.48 140.69 374.5 140.8 374.44 140.89C374.38 140.97 372.96 142.93 370.1 142.93Z" fill="#263238"/>
    <path d="M375.84 132.49C375.74 132.53 375.62 132.52 375.53 132.46C374.22 131.63 372.99 132.19 372.98 132.19C372.81 132.28 372.59 132.2 372.51 132.02C372.44 131.84 372.52 131.63 372.71 131.54C372.77 131.51 374.31 130.81 375.93 131.84C376.09 131.94 376.13 132.16 376.02 132.33C375.98 132.42 375.92 132.47 375.84 132.49Z" fill="#263238"/>
    <path d="M365.11 130.5C365.06 130.49 365.01 130.46 364.97 130.42C364.83 130.29 364.83 130.06 364.97 129.92C366.37 128.45 367.98 128.67 368.05 128.68C368.24 128.7 368.37 128.89 368.33 129.09C368.29 129.28 368.1 129.42 367.91 129.39C367.86 129.38 366.59 129.22 365.48 130.4C365.38 130.5 365.23 130.53 365.11 130.5Z" fill="#263238"/>
    <path d="M402.73 171.36L392.33 168.59C392.33 168.59 382.13 193.7 378.53 195.34C373.63 197.57 361.21 205.29 355.94 209.01C355.65 210.25 355.88 213.57 356.54 214.47C365.51 212.84 382.77 206.2 386.37 202.83C394.57 195.15 402.73 171.36 402.73 171.36Z" fill="#E58A7B"/>
    <path d="M395.47 418.94C394.9 418.94 394.37 418.84 394.04 418.56C393.78 418.33 393.68 418.02 393.73 417.62C393.77 417.32 393.93 417.18 394.06 417.12C394.91 416.69 397.26 418.18 397.52 418.36C397.58 418.4 397.61 418.47 397.59 418.54C397.57 418.61 397.52 418.67 397.45 418.68C396.93 418.8 396.17 418.94 395.47 418.94ZM394.44 417.39C394.35 417.39 394.27 417.4 394.21 417.43C394.16 417.46 394.1 417.5 394.09 417.64C394.06 417.92 394.12 418.14 394.29 418.29C394.68 418.64 395.66 418.68 396.95 418.43C396.13 417.93 395.02 417.39 394.44 417.39Z" fill="#407BFF"/>
    <path d="M397.41 418.68C397.38 418.68 397.35 418.67 397.33 418.66C396.58 418.24 395.17 416.59 395.37 415.75C395.41 415.6 395.53 415.33 395.97 415.28C396.25 415.25 396.5 415.32 396.72 415.51C397.55 416.22 397.61 418.4 397.61 418.49C397.61 418.56 397.58 418.62 397.52 418.65C397.48 418.67 397.45 418.68 397.41 418.68ZM396.07 415.63C396.04 415.63 396.02 415.63 395.99 415.64C395.76 415.67 395.73 415.78 395.72 415.82C395.6 416.32 396.48 417.56 397.22 418.15C397.17 417.51 397 416.25 396.47 415.79C396.35 415.68 396.22 415.63 396.07 415.63Z" fill="#407BFF"/>
    <path d="M368.92 417.7C368.18 417.88 367.48 417.93 367.03 417.69C366.74 417.54 366.58 417.28 366.54 416.93C366.52 416.72 366.59 416.54 366.74 416.4C367.55 415.68 370.81 416.45 371.18 416.54C371.25 416.56 371.3 416.62 371.31 416.7C371.31 416.78 371.27 416.85 371.2 416.88C370.59 417.15 369.73 417.5 368.92 417.7ZM367.29 416.51C367.15 416.54 367.05 416.59 366.97 416.65C366.91 416.71 366.88 416.77 366.89 416.86C366.92 417.1 367.02 417.26 367.21 417.37C367.74 417.66 368.97 417.43 370.56 416.77C369.45 416.54 367.99 416.34 367.29 416.51Z" fill="#407BFF"/>
    <path d="M371.17 416.89C371.15 416.9 371.12 416.9 371.1 416.89C370.13 416.71 368.06 415.56 368.04 414.7C368.04 414.5 368.13 414.22 368.6 414.06C368.94 413.93 369.3 413.96 369.63 414.12C370.72 414.66 371.28 416.58 371.31 416.66C371.33 416.72 371.31 416.79 371.27 416.83C371.24 416.86 371.2 416.88 371.17 416.89ZM368.8 414.36C368.77 414.37 368.73 414.38 368.7 414.39C368.39 414.5 368.39 414.63 368.39 414.67C368.4 415.19 369.84 416.14 370.85 416.46C370.65 415.91 370.16 414.79 369.45 414.44C369.24 414.33 369.02 414.31 368.8 414.36Z" fill="#407BFF"/>
    <path d="M356.78 208.42L346.35 213.22L345.14 216.16L348.99 218.75C348.99 218.75 356.18 217.97 358.23 213.35L356.78 208.42Z" fill="#E58A7B"/>
    <path d="M357.22 214.64C356.57 210.77 355.29 209 355.28 208.98L356.92 207.75C356.98 207.83 358.5 209.88 359.24 214.3L357.22 214.64Z" fill="#263238"/>
    <path d="M359 209.84C359.34 210.68 358.79 211.69 357.79 212.09C356.78 212.5 355.69 212.15 355.35 211.31C355.01 210.47 355.56 209.46 356.56 209.06C357.57 208.65 358.66 209 359 209.84Z" fill="#263238"/>
    <path d="M339.3 217.1L340.69 218.5L350.05 214.5L346.35 213.22L339.3 217.1Z" fill="#E58A7B"/>
    <path opacity="0.2" d="M379.49 399.87C379.55 399.85 380.91 403.7 380.91 403.7L367.07 409.51L364.89 405.45L379.49 399.87Z" fill="black"/>
    <path opacity="0.2" d="M407.78 404.72C407.84 404.72 408.24 408.57 408.24 408.57H393.08L392 404.15L407.78 404.72Z" fill="black"/>
    <path d="M405.44 168.49C408.19 177.36 397.48 189.47 397.48 189.47L382.63 183.41C382.63 183.41 384.72 176.97 388.7 168.34C393.23 158.52 402.66 159.54 405.44 168.49Z" fill="#407BFF"/>
    <path opacity="0.2" d="M405.44 168.49C408.19 177.36 397.48 189.47 397.48 189.47L382.63 183.41C382.63 183.41 384.72 176.97 388.7 168.34C393.23 158.52 402.66 159.54 405.44 168.49Z" fill="black"/>
    <path d="M257.88 79.62H251.49V80.65H257.88V79.62Z" fill="#407BFF"/>
    <path d="M340.602 120.373L339.829 137.535L340.858 137.582L341.631 120.419L340.602 120.373Z" fill="#407BFF"/>
    <path d="M338.61 84.24H220.61L209.63 329.96H327.63L338.61 84.24Z" fill="#407BFF"/>
    <path opacity="0.56" d="M335.09 87.61H217.09L206.11 333.33H324.11L335.09 87.61Z" fill="#FAFAFA"/>
    <path opacity="0.07" d="M331.57 90.98H213.57L202.58 336.7H320.58L331.57 90.98Z" fill="#407BFF"/>
    <path d="M318.14 198.15H217.42L216.58 216.96H317.3L318.14 198.15Z" fill="white"/>
    <path d="M272.81 184.44H218.03L217.66 192.85H272.44L272.81 184.44Z" fill="#407BFF"/>
    <path d="M315.87 248.9H215.15L214.31 267.7H315.03L315.87 248.9Z" fill="white"/>
    <path opacity="0.47" d="M297.4 293.08H229.67L228.66 315.62H296.39L297.4 293.08Z" fill="#407BFF"/>
    <path d="M292.87 319.11H225.14C225.11 319.11 225.08 319.1 225.05 319.07C225.03 319.05 225.02 319.01 225.02 318.98L226.03 296.44C226.03 296.38 226.09 296.33 226.15 296.33H293.88C293.91 296.33 293.94 296.34 293.97 296.37C293.99 296.39 294 296.43 294 296.46L292.99 319C292.98 319.06 292.93 319.11 292.87 319.11ZM225.26 318.88H292.75L293.75 296.58H226.26L225.26 318.88Z" fill="white"/>
    <path d="M260.98 235.18H215.76L215.39 243.59H260.6L260.98 235.18Z" fill="#407BFF"/>
    <path d="M296.11 137.43C295.86 143.06 293.82 148.26 290.55 152.48C285.61 158.88 277.87 163.04 269.35 163.04C260.83 163.04 253.47 158.88 249.11 152.48C246.22 148.26 244.64 143.06 244.89 137.43C245.52 123.28 257.5 111.81 271.64 111.81C285.78 111.81 296.74 123.28 296.11 137.43Z" fill="white"/>
    <path d="M298.52 117.17C298.45 118.67 297.91 120.05 297.04 121.17C295.73 122.87 293.67 123.98 291.41 123.98C289.15 123.98 287.19 122.87 286.03 121.17C285.26 120.05 284.84 118.67 284.91 117.17C285.08 113.41 288.26 110.36 292.02 110.36C295.77 110.36 298.68 113.41 298.52 117.17Z" fill="#407BFF"/>
    <path d="M228.27 207.56C228.2 209.22 226.79 210.57 225.12 210.57C223.46 210.57 222.17 209.22 222.24 207.56C222.31 205.9 223.72 204.55 225.39 204.55C227.05 204.54 228.34 205.89 228.27 207.56Z" fill="#263238"/>
    <path d="M241.75 207.56C241.68 209.22 240.27 210.57 238.6 210.57C236.94 210.57 235.65 209.22 235.72 207.56C235.79 205.9 237.2 204.55 238.87 204.55C240.54 204.55 241.83 205.89 241.75 207.56Z" fill="#263238"/>
    <path d="M255.24 207.56C255.17 209.22 253.76 210.57 252.09 210.57C250.43 210.57 249.14 209.22 249.21 207.56C249.28 205.9 250.69 204.55 252.36 204.55C254.03 204.54 255.31 205.89 255.24 207.56Z" fill="#263238"/>
    <path d="M226 258.3C225.93 259.96 224.52 261.31 222.85 261.31C221.19 261.31 219.9 259.96 219.97 258.3C220.04 256.64 221.45 255.29 223.12 255.29C224.78 255.29 226.07 256.64 226 258.3Z" fill="#263238"/>
    <path d="M239.48 258.3C239.41 259.96 238 261.31 236.33 261.31C234.67 261.31 233.38 259.96 233.45 258.3C233.52 256.64 234.93 255.29 236.6 255.29C238.27 255.29 239.56 256.64 239.48 258.3Z" fill="#263238"/>
    <path d="M252.97 258.3C252.9 259.96 251.49 261.31 249.82 261.31C248.16 261.31 246.87 259.96 246.94 258.3C247.01 256.64 248.42 255.29 250.09 255.29C251.76 255.29 253.05 256.64 252.97 258.3Z" fill="#263238"/>
    <path d="M266.46 258.3C266.39 259.96 264.98 261.31 263.31 261.31C261.65 261.31 260.36 259.96 260.43 258.3C260.5 256.64 261.91 255.29 263.58 255.29C265.24 255.29 266.53 256.64 266.46 258.3Z" fill="#263238"/>
    <path d="M279.95 258.3C279.88 259.96 278.47 261.31 276.8 261.31C275.14 261.31 273.85 259.96 273.92 258.3C273.99 256.64 275.4 255.29 277.07 255.29C278.73 255.29 280.02 256.64 279.95 258.3Z" fill="#263238"/>
    <path d="M277.946 136.107C282.131 132.014 282.354 125.454 278.443 121.454C274.531 117.454 267.968 117.529 263.782 121.621C259.596 125.714 259.373 132.274 263.285 136.275C267.196 140.275 273.76 140.2 277.946 136.107Z" fill="#407BFF"/>
    <path d="M290.54 152.48C285.6 158.88 277.86 163.04 269.34 163.04C260.82 163.04 253.46 158.88 249.1 152.48C253.96 147.64 261.65 144.5 270.17 144.5C278.7 144.5 286.11 147.64 290.54 152.48Z" fill="#407BFF"/>
    <path opacity="0.1" d="M277.946 136.107C282.131 132.014 282.354 125.454 278.443 121.454C274.531 117.454 267.968 117.529 263.782 121.621C259.596 125.714 259.373 132.274 263.285 136.275C267.196 140.275 273.76 140.2 277.946 136.107Z" fill="white"/>
    <path opacity="0.1" d="M290.54 152.48C285.6 158.88 277.86 163.04 269.34 163.04C260.82 163.04 253.46 158.88 249.1 152.48C253.96 147.64 261.65 144.5 270.17 144.5C278.7 144.5 286.11 147.64 290.54 152.48Z" fill="white"/>
    <path d="M143.41 221.49C142.46 223.57 141.47 225.85 140.59 228.08C139.71 230.33 138.83 232.58 138.06 234.87C136.57 239.44 135.17 244.05 134.49 248.67L134.26 250.14C134.24 250.32 134.26 250.57 134.33 250.89C134.48 251.53 134.87 252.38 135.43 253.21C136.56 254.9 138.15 256.61 139.87 258.19C141.59 259.8 143.45 261.34 145.39 262.81C147.31 264.29 149.33 265.73 151.31 267.08L149.45 270.59C144.69 268.51 140.26 266.02 135.97 262.9C133.86 261.29 131.78 259.56 129.93 257.22C129.02 256.04 128.13 254.71 127.54 252.95C127.26 252.07 127.06 251.08 127.06 250.01C127.07 249.76 127.08 249.42 127.1 249.25L127.15 248.75L127.25 247.76C127.79 242.46 128.97 237.36 130.52 232.42C131.3 229.95 132.13 227.51 133.08 225.11C134.05 222.7 135.01 220.38 136.22 217.95L143.41 221.49Z" fill="#E58A7B"/>
    <path d="M149.91 266.48L156.98 262.9L155.15 270.67C155.15 270.67 150.3 272.03 148.04 269.67L149.91 266.48Z" fill="#E58A7B"/>
    <path d="M163.45 264.17L161.57 270.59L155.15 270.66L156.98 262.89L163.45 264.17Z" fill="#E58A7B"/>
    <path d="M173.43 184.05C173.43 184.05 174.04 186.3 175.01 188C174.17 188.78 173.43 188.51 173.43 188.51V184.05Z" fill="#DF5753"/>
    <path d="M173.22 184.11C173.634 184.11 173.97 183.595 173.97 182.96C173.97 182.325 173.634 181.81 173.22 181.81C172.806 181.81 172.47 182.325 172.47 182.96C172.47 183.595 172.806 184.11 173.22 184.11Z" fill="#263238"/>
    <path d="M173.04 181.85L174.56 181.41C174.56 181.41 173.78 182.6 173.04 181.85Z" fill="#263238"/>
    <path d="M153.9 191.38C154.81 196.04 155.72 204.57 152.47 207.67C152.47 207.67 153.74 212.39 162.39 212.39C171.9 212.39 166.94 207.67 166.94 207.67C161.75 206.43 161.88 202.58 162.79 198.96L153.9 191.38Z" fill="#E58A7B"/>
    <path d="M151.37 180.79C151.85 188.56 151.88 191.86 155.81 195.85C161.71 201.85 171.16 199.56 173.01 191.81C174.68 184.83 173.62 173.29 166.01 170.2C158.52 167.15 150.9 173.02 151.37 180.79Z" fill="#E58A7B"/>
    <path d="M152.14 172C148.24 173.42 143.04 172.36 145.08 184.39C147.24 197.13 143.92 201.32 143.92 201.32C143.92 201.32 158.71 204.47 173.81 201.13C173.81 201.13 169.2 193.07 170.49 187.19C172.14 179.69 170.83 176.91 170.83 176.91C170.83 176.91 157.62 170 152.14 172Z" fill="#263238"/>
    <path d="M168.64 184.84C168.62 186.38 169.16 187.93 169.86 189.01C170.91 190.63 172.16 189.97 172.48 188.29C172.76 186.78 172.55 184.11 171.2 183.07C169.88 182.05 168.66 183.08 168.64 184.84Z" fill="#E58A7B"/>
    <path d="M148.75 173.36C147.62 170.22 152.97 165.38 164.27 167.39C175.57 169.4 176.06 178.8 176.06 178.8L173.77 176.09L173.87 178.95L162.26 181.18L148.75 173.36Z" fill="#263238"/>
    <path d="M149.71 208.2C149.55 207.24 150.2 206.33 151.16 206.18C154.68 205.6 162.67 204.42 166.7 204.98C169.69 205.39 170.48 207.14 170.61 208.57C170.7 209.63 169.83 210.52 168.77 210.47L151.38 209.68C150.54 209.65 149.85 209.03 149.71 208.2Z" fill="#407BFF"/>
    <path opacity="0.6" d="M149.71 208.2C149.55 207.24 150.2 206.33 151.16 206.18C154.68 205.6 162.67 204.42 166.7 204.98C169.69 205.39 170.48 207.14 170.61 208.57C170.7 209.63 169.83 210.52 168.77 210.47L151.38 209.68C150.54 209.65 149.85 209.03 149.71 208.2Z" fill="black"/>
    <path d="M159.76 382.91L166.21 387.38L177 372.76L170.55 368.28L159.76 382.91Z" fill="#E58A7B"/>
    <path d="M144.72 382.61L151.53 386.5L161.08 371.03L154.27 367.15L144.72 382.61Z" fill="#E58A7B"/>
    <path d="M176.99 372.76L171.43 380.3L164.98 375.82L170.55 368.28L176.99 372.76Z" fill="#CF6F64"/>
    <path d="M154.26 367.15L161.08 371.03L156.16 379L149.34 375.12L154.26 367.15Z" fill="#CF6F64"/>
    <path d="M165.2 257.04C165.2 257.04 190.38 288.78 185.66 319.12C181.84 343.63 159.75 376.82 159.75 376.82L149.36 371.66C149.36 371.66 160.65 349.6 168.06 326.22C171.17 316.41 169.84 305.61 164.03 297.12C151.27 278.49 130.84 289.57 144.59 257.04H165.2V257.04Z" fill="#407BFF"/>
    <path opacity="0.6" d="M165.2 257.04C165.2 257.04 190.38 288.78 185.66 319.12C181.84 343.63 159.75 376.82 159.75 376.82L149.36 371.66C149.36 371.66 160.65 349.6 168.06 326.22C171.17 316.41 169.84 305.61 164.03 297.12C151.27 278.49 130.84 289.57 144.59 257.04H165.2V257.04Z" fill="black"/>
    <path opacity="0.4" d="M177.55 277.43L173.89 273.79C173.89 274.08 180.98 317.84 182.97 330.14C184.17 326.37 185.1 322.65 185.65 319.11C187.97 304.26 183.11 289.06 177.55 277.43Z" fill="black"/>
    <path d="M176.44 257.04C176.44 257.04 206.76 296.92 207.61 320.83C208.32 340.87 174.58 379.58 174.58 379.58L164.78 373.24C164.78 373.24 184.51 345.72 189.48 323.23C187.59 300.97 146.94 257.04 146.94 257.04H176.44V257.04Z" fill="#407BFF"/>
    <path opacity="0.6" d="M176.44 257.04C176.44 257.04 206.76 296.92 207.61 320.83C208.32 340.87 174.58 379.58 174.58 379.58L164.78 373.24C164.78 373.24 184.51 345.72 189.48 323.23C187.59 300.97 146.94 257.04 146.94 257.04H176.44V257.04Z" fill="black"/>
    <path d="M138.93 209.46C135.68 210.23 132.58 222.01 132.58 222.01L145.24 230.46C145.24 230.46 149.46 221.14 147.99 217.06C146.46 212.82 143.03 208.49 138.93 209.46Z" fill="#407BFF"/>
    <path opacity="0.2" d="M141.41 217.04L140.53 227.31L145.24 230.47C145.24 230.47 147.45 225.59 148.11 221.33L141.41 217.04Z" fill="black"/>
    <path d="M180.19 209.68C180.19 209.68 183.93 211 176.44 257.03C163.8 257.03 150.73 257.03 144.58 257.03C145.11 244.06 145.13 236.07 138.93 209.45C138.93 209.45 145.61 208 152.46 207.67C157.82 207.41 162.21 207.24 166.93 207.67C173.15 208.24 180.19 209.68 180.19 209.68Z" fill="#407BFF"/>
    <path d="M183.43 216.99C184.15 218.99 184.92 221.14 185.71 223.22C186.47 225.32 187.27 227.42 188.08 229.51L190.53 235.79L191.15 237.36L191.46 238.14L191.62 238.53C191.65 238.6 191.64 238.59 191.63 238.59C191.59 238.57 191.55 238.37 190.93 237.97C190.63 237.78 190.12 237.6 189.62 237.59C189.13 237.57 188.73 237.69 188.51 237.79C188.06 238.01 188.05 238.1 188.06 238.08C188.09 238.07 188.18 237.98 188.28 237.85C188.72 237.33 189.24 236.42 189.71 235.52C190.18 234.6 190.63 233.62 191.08 232.63C191.96 230.64 192.77 228.56 193.59 226.47C194.4 224.38 195.16 222.26 195.92 220.13L198.2 213.75L202.05 214.72C201.29 219.29 200.3 223.76 199.13 228.24C198.56 230.49 197.89 232.72 197.13 234.97C196.75 236.1 196.33 237.22 195.84 238.37C195.33 239.53 194.83 240.66 193.94 241.99C193.71 242.33 193.44 242.68 193.07 243.07C192.68 243.45 192.22 243.92 191.25 244.36C190.76 244.57 190.09 244.75 189.31 244.72C188.53 244.7 187.75 244.42 187.2 244.08C186.09 243.37 185.71 242.7 185.38 242.19C185.23 241.94 185.1 241.67 185.01 241.49L184.82 241.1L184.44 240.32L183.68 238.77C182.69 236.69 181.72 234.6 180.81 232.48C179.9 230.36 179.02 228.23 178.16 226.08C177.34 223.9 176.53 221.79 175.8 219.47L183.43 216.99Z" fill="#E58A7B"/>
    <path d="M180.19 209.68C184.02 210.59 188.32 221.91 188.32 221.91L176.94 231.61C176.94 231.61 169.56 219.27 171.06 215.2C172.61 210.96 175.19 208.49 180.19 209.68Z" fill="#407BFF"/>
    <path d="M199.98 210.24L203.97 206.9L206.75 211.23L204.7 214.85C204.7 214.85 201.44 217.83 198.55 216.32C197.63 214.19 198.2 211.72 199.98 210.24Z" fill="#E58A7B"/>
    <path d="M211.22 206.91L210.92 207.99L204.59 209.06L203.97 206.9L211.22 206.91Z" fill="#E58A7B"/>
    <path d="M175.4 380.1L163.98 372.71L166.03 369.16L178.86 377.05L175.4 380.1Z" fill="#407BFF"/>
    <path d="M155.98 385.97C155.07 385.97 153.88 385.39 153.15 384.99C153.08 384.95 153.05 384.88 153.06 384.81C153.07 384.74 153.12 384.67 153.19 384.65C153.5 384.55 156.21 383.72 156.97 384.37C157.09 384.47 157.23 384.66 157.18 384.97C157.12 385.39 156.93 385.68 156.62 385.84C156.44 385.93 156.22 385.97 155.98 385.97ZM153.73 384.88C154.97 385.51 155.97 385.75 156.45 385.51C156.65 385.41 156.77 385.22 156.81 384.93C156.83 384.77 156.78 384.7 156.72 384.66C156.33 384.32 154.83 384.58 153.73 384.88Z" fill="#263238"/>
    <path d="M153.25 385.02C153.2 385.02 153.15 385 153.12 384.96C153.07 384.91 153.06 384.84 153.07 384.78C153.1 384.69 153.72 382.52 154.75 382.02C155.02 381.89 155.3 381.88 155.57 381.99C156 382.17 156.04 382.49 156.03 382.66C155.96 383.56 154.13 384.8 153.29 385.01C153.28 385.02 153.26 385.02 153.25 385.02ZM155.19 382.29C155.1 382.29 155.01 382.31 154.91 382.36C154.3 382.65 153.78 383.83 153.54 384.54C154.42 384.17 155.62 383.19 155.66 382.64C155.67 382.55 155.65 382.44 155.43 382.34C155.35 382.31 155.26 382.29 155.19 382.29Z" fill="#263238"/>
    <path d="M170.27 390.29C169.14 390.29 167.57 388.84 166.71 387.95C166.65 387.89 166.64 387.81 166.68 387.74C166.72 387.67 166.81 387.63 166.87 387.64C167.27 387.69 170.74 388.16 171.24 389.14C171.33 389.33 171.33 389.53 171.22 389.73C171.04 390.05 170.77 390.24 170.43 390.28C170.37 390.29 170.32 390.29 170.27 390.29ZM167.37 388.09C168.63 389.32 169.74 390 170.37 389.91C170.59 389.88 170.76 389.76 170.88 389.54C170.93 389.46 170.93 389.38 170.89 389.31C170.63 388.78 168.78 388.32 167.37 388.09Z" fill="#263238"/>
    <path d="M167.48 388.06C167.22 388.06 166.99 388.04 166.81 388.01C166.75 388 166.69 387.95 166.67 387.89C166.65 387.83 166.66 387.76 166.7 387.71C166.76 387.64 168.11 386.01 169.39 385.9C169.79 385.87 170.13 385.98 170.42 386.22C170.81 386.56 170.79 386.86 170.69 387.05C170.38 387.72 168.65 388.06 167.48 388.06ZM167.22 387.69C168.34 387.75 170.12 387.38 170.36 386.89C170.38 386.85 170.44 386.73 170.18 386.5C169.96 386.32 169.71 386.24 169.43 386.26C168.58 386.34 167.65 387.23 167.22 387.69Z" fill="#263238"/>
    <path d="M153.52 383.97L145.04 381.57C144.73 381.48 144.42 381.63 144.29 381.92L141.43 388.36C141.13 389.03 141.55 389.86 142.26 390.04C145.23 390.83 146.71 391.05 150.44 392.11C152.73 392.76 156.02 393.94 159.19 394.84C162.29 395.72 163.41 392.65 162.17 391.99C156.61 389.04 156.17 387.03 154.65 384.79C154.38 384.38 153.97 384.09 153.52 383.97Z" fill="#407BFF"/>
    <path d="M166.94 386.79L159.7 381.76C159.44 381.58 159.1 381.61 158.88 381.84L154.08 387C153.58 387.53 153.7 388.45 154.32 388.86C156.87 390.57 158.19 391.27 161.38 393.48C163.34 394.84 167.25 397.86 169.95 399.73C172.6 401.57 174.66 399.03 173.7 398.01C169.4 393.42 168.46 390.54 167.75 387.93C167.62 387.46 167.33 387.06 166.94 386.79Z" fill="#407BFF"/>
    <path d="M161.07 377.48L148.02 370.99L149.37 367.46L163.31 374.29L161.07 377.48Z" fill="#407BFF"/>
    <path d="M144.1 255.17L143 258.02C142.89 258.24 143.15 258.47 143.52 258.47H176.6C176.89 258.47 177.13 258.33 177.14 258.15L177.43 255.3C177.45 255.1 177.2 254.94 176.89 254.94H144.62C144.39 254.93 144.18 255.02 144.1 255.17Z" fill="#407BFF"/>
    <path opacity="0.4" d="M144.1 255.17L143 258.02C142.89 258.24 143.15 258.47 143.52 258.47H176.6C176.89 258.47 177.13 258.33 177.14 258.15L177.43 255.3C177.45 255.1 177.2 254.94 176.89 254.94H144.62C144.39 254.93 144.18 255.02 144.1 255.17Z" fill="white"/>
    <path d="M149.31 258.77H148.45C148.28 258.77 148.15 258.68 148.16 258.57L148.57 254.86C148.58 254.75 148.73 254.66 148.9 254.66H149.76C149.93 254.66 150.06 254.75 150.05 254.86L149.64 258.57C149.63 258.68 149.48 258.77 149.31 258.77Z" fill="#407BFF"/>
    <path d="M169.71 258.77H168.85C168.68 258.77 168.55 258.68 168.56 258.57L168.97 254.86C168.98 254.75 169.13 254.66 169.3 254.66H170.16C170.33 254.66 170.46 254.75 170.45 254.86L170.04 258.57C170.04 258.68 169.89 258.77 169.71 258.77Z" fill="#407BFF"/>
    <path d="M148.55 428.13C163.346 428.13 175.34 427.261 175.34 426.19C175.34 425.119 163.346 424.25 148.55 424.25C133.754 424.25 121.76 425.119 121.76 426.19C121.76 427.261 133.754 428.13 148.55 428.13Z" fill="#F5F5F5"/>
    <path d="M164.87 423.45C160.13 422.07 154.91 420.3 151.69 418.42C151.6 418.37 151.51 418.33 151.41 418.28V396.85H160.94C162.52 396.85 163.79 395.57 163.79 394C163.79 392.42 162.51 391.15 160.94 391.15H151.41V293.33H145.7V391.15H136.17C134.59 391.15 133.32 392.43 133.32 394C133.32 395.58 134.6 396.85 136.17 396.85H145.7V418.28C145.61 418.33 145.51 418.37 145.42 418.42C142.19 420.31 136.98 422.08 132.24 423.45C130.68 423.9 131.01 426.19 132.63 426.19H148.55H164.47C166.1 426.19 166.43 423.9 164.87 423.45Z" fill="#E0E0E0"/>
    <path d="M166.34 304.29H130.78C127.93 304.29 125.6 301.96 125.6 299.11V288.54C125.6 285.69 127.93 283.36 130.78 283.36H166.34C169.19 283.36 171.52 285.69 171.52 288.54V299.11C171.52 301.96 169.19 304.29 166.34 304.29Z" fill="#407BFF"/>
    <path d="M130.45 304.29V306.11C130.45 307.61 132.08 308.84 134.08 308.84H163.04C165.04 308.84 166.67 307.61 166.67 306.11V304.29H130.45Z" fill="#407BFF"/>
    <path opacity="0.3" d="M130.45 304.29V306.11C130.45 307.61 132.08 308.84 134.08 308.84H163.04C165.04 308.84 166.67 307.61 166.67 306.11V304.29H130.45Z" fill="white"/>
</svg>
