<svg width="500" height="373" viewBox="0 0 500 373" fill="none" xmlns="http://www.w3.org/2000/svg">
    <g clip-path="url(#clip0)">
        <path d="M500 327.45H0V327.7H500V327.45Z" fill="#E6E6E6"/>
        <path d="M124.82 342.58H91.7V342.83H124.82V342.58Z" fill="#E6E6E6"/>
        <path d="M81.22 342.58H62.03V342.83H81.22V342.58Z" fill="#E6E6E6"/>
        <path d="M210.55 346.26H191.36V346.51H210.55V346.26Z" fill="#E6E6E6"/>
        <path d="M310.61 351.84H267.42V352.09H310.61V351.84Z" fill="#E6E6E6"/>
        <path d="M258.52 351.84H252.19V352.09H258.52V351.84Z" fill="#E6E6E6"/>
        <path d="M453.35 346.26H359.67V346.51H453.35V346.26Z" fill="#E6E6E6"/>
        <path d="M237.01 282.85H43.92C40.77 282.85 38.21 280.29 38.21 277.14V5.71C38.21 2.56 40.77 0 43.92 0H237.02C240.17 0 242.73 2.56 242.73 5.71V277.14C242.72 280.29 240.16 282.85 237.01 282.85ZM43.92 0.25C40.91 0.25 38.46 2.7 38.46 5.71V277.14C38.46 280.15 40.91 282.6 43.92 282.6H237.02C240.03 282.6 242.48 280.15 242.48 277.14V5.71C242.48 2.7 240.03 0.25 237.02 0.25H43.92Z" fill="#E6E6E6"/>
        <path d="M453.31 282.85H260.21C257.06 282.85 254.5 280.29 254.5 277.14V5.71C254.5 2.56 257.06 0 260.21 0H453.31C456.46 0 459.02 2.56 459.02 5.71V277.14C459.02 280.29 456.46 282.85 453.31 282.85ZM260.21 0.25C257.2 0.25 254.75 2.7 254.75 5.71V277.14C254.75 280.15 257.2 282.6 260.21 282.6H453.31C456.32 282.6 458.77 280.15 458.77 277.14V5.71C458.77 2.7 456.32 0.25 453.31 0.25H260.21Z" fill="#E6E6E6"/>
        <path d="M267.4 242.02H245.41V329.25H267.4V242.02Z" fill="#E0E0E0"/>
        <path d="M263.22 329.26H267.4V317.38H258.84L263.22 329.26Z" fill="#FAFAFA"/>
        <path d="M171.04 242.02H149.05V329.25H171.04V242.02Z" fill="#E0E0E0"/>
        <path d="M267.4 242.02H167.4V321.96H267.4V242.02Z" fill="#FAFAFA"/>
        <path d="M263.77 245.95V267.1H171.02V245.95H263.77V245.95ZM264.16 245.57H170.64V267.49H264.16V245.57Z" fill="#E0E0E0"/>
        <path d="M171.58 329.26H167.4V317.38H175.95L171.58 329.26Z" fill="#FAFAFA"/>
        <path d="M215.19 256.53C215.19 257.75 216.18 258.74 217.4 258.74C218.62 258.74 219.61 257.75 219.61 256.53C219.61 255.31 218.62 254.32 217.4 254.32C216.18 254.32 215.19 255.31 215.19 256.53Z" fill="#E6E6E6"/>
        <path d="M263.77 271.42V292.57H171.02V271.42H263.77ZM264.16 271.04H170.64V292.96H264.16V271.04Z" fill="#E0E0E0"/>
        <path d="M215.19 282C215.19 283.22 216.18 284.21 217.4 284.21C218.62 284.21 219.61 283.22 219.61 282C219.61 280.78 218.62 279.79 217.4 279.79C216.18 279.79 215.19 280.78 215.19 282Z" fill="#E6E6E6"/>
        <path d="M263.77 296.89V318.04H171.02V296.89H263.77ZM264.16 296.5H170.64V318.42H264.16V296.5Z" fill="#E0E0E0"/>
        <path d="M215.19 307.46C215.19 308.68 216.18 309.67 217.4 309.67C218.62 309.67 219.61 308.68 219.61 307.46C219.61 306.24 218.62 305.25 217.4 305.25C216.18 305.25 215.19 306.24 215.19 307.46Z" fill="#E6E6E6"/>
        <path d="M157.61 191.36H135.62V329.26H157.61V191.36Z" fill="#E0E0E0"/>
        <path d="M153.43 329.26H157.61V317.38H149.05L153.43 329.26Z" fill="#FAFAFA"/>
        <path d="M75.43 191.36H53.44V329.26H75.43V191.36Z" fill="#E0E0E0"/>
        <path d="M157.61 191.36H71.78V321.97H157.61V191.36Z" fill="#FAFAFA"/>
        <path d="M153.91 195.06V224.63H75.48V195.06H153.91ZM154.37 194.61H75.02V225.09H154.37V194.61Z" fill="#E0E0E0"/>
        <path d="M153.91 228.23V306.67H116.55V228.23H153.91V228.23ZM154.37 227.77H116.1V307.12H154.37V227.77Z" fill="#E0E0E0"/>
        <path d="M112.84 228.23V306.67H75.48V228.23H112.84V228.23ZM113.29 227.77H75.02V307.12H113.29V227.77V227.77Z" fill="#E0E0E0"/>
        <path d="M75.96 329.26H71.78V317.38H80.34L75.96 329.26Z" fill="#FAFAFA"/>
        <path d="M112.48 209.85C112.48 211.07 113.47 212.06 114.69 212.06C115.91 212.06 116.9 211.07 116.9 209.85C116.9 208.63 115.91 207.64 114.69 207.64C113.47 207.64 112.48 208.63 112.48 209.85Z" fill="#E6E6E6"/>
        <path d="M120.4 265.57C120.4 266.79 121.39 267.78 122.61 267.78C123.83 267.78 124.82 266.79 124.82 265.57C124.82 264.35 123.83 263.36 122.61 263.36C121.39 263.36 120.4 264.35 120.4 265.57Z" fill="#E6E6E6"/>
        <path d="M104.57 265.57C104.57 266.79 105.56 267.78 106.78 267.78C108 267.78 108.99 266.79 108.99 265.57C108.99 264.35 108 263.36 106.78 263.36C105.56 263.36 104.57 264.35 104.57 265.57Z" fill="#E6E6E6"/>
        <path d="M102.07 152.92H92.8C92.8 152.92 94.41 161.49 94.41 166.54C94.41 171.59 87.35 191.37 97.44 191.37C107.52 191.37 100.47 171.59 100.47 166.54C100.46 161.49 102.07 152.92 102.07 152.92Z" fill="#E0E0E0"/>
        <path d="M66.8 173.2V179.23C66.8 185.91 72.26 191.37 78.94 191.37H84.97C91.65 191.37 97.11 185.91 97.11 179.23V173.2H66.8V173.2Z" fill="#F5F5F5"/>
        <path d="M195.67 229.31C195.67 236.3 203.5 242.02 213.07 242.02H221.71C231.28 242.02 239.11 236.3 239.11 229.31H195.67Z" fill="#E0E0E0"/>
        <path d="M424.61 219.08C419.37 223.36 412.14 231.19 405.51 242.21C401.1 249.55 398.44 257.24 397.27 267.4C397.3 255.9 397.33 243.55 397.37 231.89C398.7 228.89 401.74 221.97 403.92 216.51C411.2 198.28 413.91 193.8 420.45 178.07C429.18 157.1 438.12 132.21 435.56 134.2C430.34 138.25 410.34 175.7 408.18 181.06C400.74 199.5 398.67 212.94 397.39 225.91C397.43 214.96 397.47 204.9 397.51 197.14C397.64 171.83 398.07 163.66 398.28 161.14C399.09 159.86 400.04 158.37 400.6 157.56C405.3 150.77 407.11 144.98 411.54 134.85C417.81 120.49 423.22 95 421.64 96.29C415.06 101.64 409.88 113.15 403.06 127.82C396.24 142.48 398.19 150.92 396.84 163.44C396.56 165.9 396.34 175.17 396.18 188.03C394.41 174.33 391.1 165.31 385.05 157.11C377.61 147.02 370.41 140.21 365.13 136.65C359.85 133.09 374.25 157.87 381.14 168.69C387.27 178.32 392.92 186.82 396.11 195.19C395.94 212.61 395.86 234.67 395.86 255.21C394.28 245.86 391.7 235.8 388.26 228.01C384.12 218.65 377.76 204.29 372.7 199.41C371.48 198.24 378 226.17 382.18 233.6C386.36 241.03 389.43 248.03 392.06 252.24C392.67 253.22 394.71 257.01 395.87 259.19C395.88 284.26 396.01 306.38 396.23 313.91H397.31C397.24 311.97 397.22 299.21 397.25 282.33C399.86 273.17 405.82 262.71 410.75 253.17C416.11 242.74 429.85 214.8 424.61 219.08Z" fill="#E0E0E0"/>
        <path d="M412.44 329.26H381.1L378.73 298.54H414.81L412.44 329.26Z" fill="#F0F0F0"/>
        <path d="M417.14 302.12H376.4L375.23 291.75H418.31L417.14 302.12Z" fill="#F5F5F5"/>
        <path d="M124.26 20.54H68.21V82.09H124.26V20.54Z" fill="#E0E0E0"/>
        <path d="M130.33 20.54H72.4301V82.09H130.33V20.54Z" fill="#F5F5F5"/>
        <path d="M125.481 77.2477L125.481 25.3977L77.2811 25.3977V77.2477H125.481Z" fill="white"/>
        <path d="M113.801 64.6676V37.9576L88.9711 37.9576V64.6676H113.801Z" fill="#F5F5F5"/>
        <path d="M410.05 27.72H357.98V84.9H410.05V27.72Z" fill="#E0E0E0"/>
        <path d="M415.69 27.72H361.91V84.9H415.69V27.72Z" fill="#F5F5F5"/>
        <path d="M411.186 80.3999V32.2299L366.416 32.2299V80.3999H411.186Z" fill="white"/>
        <path d="M388.8 70.28C396.515 70.28 402.77 64.0254 402.77 56.31C402.77 48.5945 396.515 42.34 388.8 42.34C381.085 42.34 374.83 48.5945 374.83 56.31C374.83 64.0254 381.085 70.28 388.8 70.28Z" fill="#F5F5F5"/>
        <path d="M182.49 57.24H140.91V102.9H182.49V57.24Z" fill="#E0E0E0"/>
        <path d="M186.99 57.24H144.04V102.9H186.99V57.24Z" fill="#F5F5F5"/>
        <path d="M183.392 99.3049V60.8449L147.642 60.8449V99.3049H183.392Z" fill="white"/>
        <path d="M165.52 70.35L155.74 87.29H175.3L165.52 70.35Z" fill="#F5F5F5"/>
        <path d="M250 372.61C357.082 372.61 443.89 367.542 443.89 361.29C443.89 355.038 357.082 349.97 250 349.97C142.917 349.97 56.11 355.038 56.11 361.29C56.11 367.542 142.917 372.61 250 372.61Z" fill="#F5F5F5"/>
        <path d="M349.25 108.48L339.33 104.46C339.33 104.46 326.24 128.33 322.49 129.54C317.39 131.18 306.84 135.74 300.57 136.59C299.72 137.58 298.33 140.69 298.46 141.83C306.87 144.63 325.35 140.91 329.31 137.97C338.32 131.27 349.25 108.48 349.25 108.48Z" fill="#E58A7B"/>
        <path d="M352.3 103.06C354.15 109.9 344.13 123.64 344.13 123.64L330.97 116.26C330.97 116.26 333.42 110.61 336.43 104.86C341.27 95.57 350.19 95.26 352.3 103.06Z" fill="#407BFF"/>
        <path opacity="0.2" d="M352.3 103.06C354.15 109.9 344.13 123.64 344.13 123.64L330.97 116.26C330.97 116.26 333.42 110.61 336.43 104.86C341.27 95.57 350.19 95.26 352.3 103.06Z" fill="black"/>
        <path opacity="0.2" d="M336.21 119.2L341.38 122.1L342.28 106.23C339.28 108.54 337.16 115.5 336.21 119.2Z" fill="black"/>
        <path d="M343.66 97.91C343.66 97.91 333.44 120.65 339.4 162.99C351.53 162.99 373.77 162.99 379.67 162.99C380.31 156.81 378.19 126.65 385.86 97.53C385.86 97.53 379.04 96.14 372.48 95.83C367.35 95.58 359.91 95.42 355.36 95.83C349.37 96.36 343.66 97.91 343.66 97.91Z" fill="#407BFF"/>
        <path opacity="0.2" d="M343.66 97.91C343.66 97.91 333.44 120.65 339.4 162.99C351.53 162.99 373.77 162.99 379.67 162.99C380.31 156.81 378.19 126.65 385.86 97.53C385.86 97.53 379.04 96.14 372.48 95.83C367.35 95.58 359.91 95.42 355.36 95.83C349.37 96.36 343.66 97.91 343.66 97.91Z" fill="black"/>
        <path d="M334.32 362.19C334.26 363.26 349.53 364.13 368.42 364.13C387.31 364.13 402.69 363.26 402.75 362.19C402.81 361.12 387.55 360.25 368.65 360.25C349.76 360.24 334.39 361.12 334.32 362.19Z" fill="#E8ECF1"/>
        <path d="M362.145 335.21L354.979 337.971L361.123 353.918L368.289 351.157L362.145 335.21Z" fill="#E58A7B"/>
        <path d="M393.05 354.5H385.52L382.76 337.07H390.29L393.05 354.5Z" fill="#E58A7B"/>
        <path d="M385.04 353.63H393.5C393.81 353.63 394.06 353.84 394.11 354.14L395.2 360.83C395.31 361.52 394.73 362.18 394.02 362.17C391.07 362.12 389.65 361.95 385.93 361.95C383.64 361.95 378.91 362.19 375.75 362.19C372.66 362.19 372.36 359.07 373.67 358.78C379.55 357.51 381.83 355.76 383.79 354.09C384.14 353.79 384.59 353.63 385.04 353.63Z" fill="#263238"/>
        <path d="M359.97 350.99L367.99 348.66C368.29 348.57 368.6 348.7 368.73 348.97L371.7 354.97C372.01 355.59 371.64 356.37 370.95 356.56C368.05 357.35 366.09 357.85 362.45 358.91C359.94 359.64 357.38 360.83 354.9 361.62C353.18 362.17 349.14 362.19 347.05 362.19C343.96 362.19 343.27 358.93 344.59 358.78C347.94 358.4 348.39 358.58 350.24 357.65C353.3 356.11 355.67 354.84 358.32 352.07C358.8 351.59 359.34 351.18 359.97 350.99Z" fill="#263238"/>
        <path d="M301.83 136.52L293.55 133.03L290.14 142.21C290.14 142.21 294.92 143.08 300.38 142.21L301.83 136.52Z" fill="#E58A7B"/>
        <path d="M287.39 132.81L287.17 138.91L290.14 142.21L293.55 133.03L287.39 132.81Z" fill="#E58A7B"/>
        <path d="M362.165 335.191L355 337.956L358.173 346.175L365.338 343.41L362.165 335.191Z" fill="#CF6F64"/>
        <path d="M390.29 337.07H382.76L384.19 346.06H391.72L390.29 337.07Z" fill="#CF6F64"/>
        <path opacity="0.2" d="M338.12 151.53C338.26 153.34 338.44 155.19 338.65 157.09L368.59 147.37C373.27 145.97 377.33 143.03 380.11 139.02C380.22 136.35 380.38 133.54 380.6 130.61C380.7 129.18 380.83 127.72 380.96 126.24C381.1 124.7 381.27 123.13 381.45 121.54L338.12 151.53Z" fill="black"/>
        <path d="M347.9 118.74L346.88 118.62C347.47 113.63 351.2 109.69 355.13 109.78L355.1 110.81C351.71 110.7 348.43 114.26 347.9 118.74Z" fill="white"/>
        <path d="M353.23 127.97C353.17 127.97 353.12 127.97 353.06 127.97L353.09 126.94C356.53 127.07 359.76 123.48 360.29 119.01L361.31 119.13C360.73 124.05 357.12 127.97 353.23 127.97Z" fill="white"/>
        <path d="M371.92 76.54C370.52 82.05 368.85 92.14 372.49 95.82C372.49 95.82 369.95 101.41 359.71 101.41C350.36 101.41 355.37 95.82 355.37 95.82C361.6 94.35 361.71 89.8 360.89 85.52L371.92 76.54Z" fill="#E58A7B"/>
        <path d="M367.42 80.21L360.89 85.52C361.09 86.53 361.23 87.56 361.24 88.56C363.15 90.46 366.98 85.65 367.37 83.19C367.57 81.95 367.59 80.78 367.42 80.21Z" fill="#CF6F64"/>
        <path d="M349.66 76.48C350.62 78.19 352.31 79.26 353.9 79.62C356.3 80.15 357.51 77.95 356.85 75.72C356.25 73.72 354.29 71.03 351.87 71.49C349.5 71.94 348.57 74.52 349.66 76.48Z" fill="#CF6F64"/>
        <path d="M353.63 58.85C349.89 60.56 348.57 75.42 353.27 77.62C357.97 79.81 360.71 55.6 353.63 58.85Z" fill="#263238"/>
        <path d="M373.06 68.26C372.16 75.72 372.02 80.11 368.03 83.93C362.03 89.69 353.02 86.27 351.68 78.83C350.47 72.13 352.14 61.06 359.61 58.09C366.97 55.16 373.95 60.8 373.06 68.26Z" fill="#E58A7B"/>
        <path d="M360.77 62.71C366.3 61.29 370.37 60.33 368.92 64.95C366.98 71.1 364.66 77.06 367.78 77.34C369.67 77.51 378.08 73.94 377.01 70.34C376.08 67.2 379.99 66.35 380.71 64.75C383.3 58.98 375.89 59.73 377.21 56.24C378.49 52.84 371.24 47.1 367.22 49.91C360.71 54.45 349.54 54.39 355.41 46.94C359.62 41.61 352.11 42.7 352.11 42.7C352.11 42.7 356.65 45.39 349.01 49.55C340.92 53.96 348.33 65.9 360.77 62.71Z" fill="#263238"/>
        <path d="M375.95 76.48C374.79 78.19 372.98 79.26 371.34 79.62C368.88 80.15 367.93 77.95 368.85 75.72C369.68 73.72 371.96 71.03 374.32 71.49C376.64 71.94 377.27 74.52 375.95 76.48Z" fill="#E58A7B"/>
        <path d="M339.4 162.99C339.4 162.99 332.64 223.49 332.11 246.45C331.56 270.33 355.02 344.84 355.02 344.84L367.03 339.8C367.03 339.8 353.05 271.73 354.99 248.27C357.11 222.7 365.87 162.99 365.87 162.99H339.4V162.99Z" fill="#407BFF"/>
        <path opacity="0.2" d="M356.2 179.6C350.82 190.78 354.44 212.88 357.36 225.99C358.47 216.74 359.79 206.7 361.04 197.41C360.92 183.12 359.81 172.1 356.2 179.6Z" fill="black"/>
        <path d="M366.49 335.87C366.55 335.85 367.91 339.7 367.91 339.7L354.07 345.51L351.89 341.45L366.49 335.87Z" fill="#407BFF"/>
        <path d="M353.69 162.99C353.69 162.99 358.86 220.53 362.29 242.08C366.04 265.69 380.79 344.32 380.79 344.32H394.58C394.58 344.32 386.32 267.6 384.76 244.22C383.07 218.85 379.69 162.99 379.69 162.99H353.69Z" fill="#407BFF"/>
        <path d="M394.78 340.72C394.84 340.72 395.24 344.57 395.24 344.57H380.08L379 340.15L394.78 340.72Z" fill="#407BFF"/>
        <path opacity="0.2" d="M389.5 336.17C389.43 336.17 389.38 336.12 389.37 336.06C389.29 335.36 381.84 266.09 380.44 245.1C378.92 222.31 375.86 171.79 375.83 171.28C375.83 171.21 375.88 171.15 375.95 171.14H375.96C376.03 171.14 376.08 171.19 376.09 171.26C376.12 171.77 379.18 222.29 380.7 245.08C382.1 266.07 389.55 335.34 389.63 336.03C389.64 336.1 389.59 336.16 389.52 336.17C389.51 336.17 389.5 336.17 389.5 336.17Z" fill="black"/>
        <path d="M361.62 70.34C361.58 70.95 361.23 71.44 360.84 71.44C360.44 71.44 360.15 70.95 360.19 70.34C360.23 69.73 360.58 69.24 360.97 69.24C361.37 69.24 361.66 69.73 361.62 70.34Z" fill="#263238"/>
        <path d="M354.76 70.34C354.72 70.95 354.37 71.44 353.98 71.44C353.59 71.44 353.29 70.95 353.33 70.34C353.37 69.73 353.72 69.24 354.11 69.24C354.5 69.24 354.8 69.73 354.76 70.34Z" fill="#263238"/>
        <path d="M356.92 70.64C356.92 70.64 355.33 74.14 353.71 75.83C354.73 76.83 356.58 76.37 356.58 76.37L356.92 70.64Z" fill="#DF5753"/>
        <path d="M357.1 78.93C357 78.93 356.93 78.85 356.93 78.75C356.94 78.65 357.02 78.57 357.12 78.57C359.79 78.57 361.14 76.71 361.15 76.69C361.21 76.61 361.32 76.58 361.4 76.64C361.48 76.69 361.5 76.8 361.44 76.89C361.38 76.97 359.96 78.93 357.1 78.93Z" fill="#263238"/>
        <path d="M362.84 68.49C362.74 68.53 362.62 68.52 362.53 68.46C361.22 67.63 359.99 68.19 359.98 68.19C359.81 68.28 359.59 68.2 359.51 68.02C359.44 67.84 359.52 67.63 359.71 67.54C359.77 67.51 361.31 66.81 362.93 67.84C363.09 67.94 363.13 68.16 363.02 68.33C362.98 68.42 362.92 68.47 362.84 68.49Z" fill="#263238"/>
        <path d="M352.11 66.5C352.06 66.49 352.01 66.46 351.97 66.42C351.83 66.29 351.83 66.06 351.97 65.92C353.37 64.45 354.98 64.67 355.05 64.68C355.24 64.7 355.37 64.89 355.33 65.09C355.29 65.28 355.1 65.42 354.91 65.39C354.86 65.38 353.59 65.22 352.48 66.4C352.38 66.5 352.23 66.53 352.11 66.5Z" fill="#263238"/>
        <path d="M389.73 107.36L379.33 104.59C379.33 104.59 369.13 129.7 365.53 131.34C360.63 133.57 348.21 141.29 342.94 145.01C342.65 146.25 342.88 149.57 343.54 150.47C352.51 148.84 369.77 142.2 373.37 138.83C381.57 131.15 389.73 107.36 389.73 107.36Z" fill="#E58A7B"/>
        <path d="M382.47 354.94C381.9 354.94 381.37 354.84 381.04 354.56C380.78 354.33 380.68 354.02 380.73 353.62C380.77 353.32 380.93 353.18 381.06 353.12C381.91 352.69 384.26 354.18 384.52 354.36C384.58 354.4 384.61 354.47 384.59 354.54C384.57 354.61 384.52 354.67 384.45 354.68C383.93 354.8 383.17 354.94 382.47 354.94ZM381.44 353.39C381.35 353.39 381.27 353.4 381.21 353.43C381.16 353.46 381.1 353.5 381.09 353.64C381.06 353.92 381.12 354.14 381.29 354.29C381.68 354.64 382.66 354.68 383.95 354.43C383.13 353.93 382.02 353.39 381.44 353.39Z" fill="#407BFF"/>
        <path d="M384.41 354.68C384.38 354.68 384.35 354.67 384.33 354.66C383.58 354.24 382.17 352.59 382.37 351.75C382.41 351.6 382.53 351.33 382.97 351.28C383.25 351.25 383.5 351.32 383.72 351.51C384.55 352.22 384.61 354.4 384.61 354.49C384.61 354.56 384.58 354.62 384.52 354.65C384.48 354.67 384.45 354.68 384.41 354.68ZM383.07 351.63C383.04 351.63 383.02 351.63 382.99 351.64C382.76 351.67 382.73 351.78 382.72 351.82C382.6 352.32 383.48 353.56 384.22 354.15C384.17 353.51 384 352.25 383.47 351.79C383.35 351.68 383.22 351.63 383.07 351.63Z" fill="#407BFF"/>
        <path d="M355.92 353.7C355.18 353.88 354.48 353.93 354.03 353.69C353.74 353.54 353.58 353.28 353.54 352.93C353.52 352.72 353.59 352.54 353.74 352.4C354.55 351.68 357.81 352.45 358.18 352.54C358.25 352.56 358.3 352.62 358.31 352.7C358.31 352.78 358.27 352.85 358.2 352.88C357.59 353.15 356.73 353.5 355.92 353.7ZM354.29 352.51C354.15 352.54 354.05 352.59 353.97 352.65C353.91 352.71 353.88 352.77 353.89 352.86C353.92 353.1 354.02 353.26 354.21 353.37C354.74 353.66 355.97 353.43 357.56 352.77C356.45 352.54 354.99 352.34 354.29 352.51Z" fill="#407BFF"/>
        <path d="M358.17 352.89C358.15 352.9 358.12 352.9 358.1 352.89C357.13 352.71 355.06 351.56 355.04 350.7C355.04 350.5 355.13 350.22 355.6 350.06C355.94 349.93 356.3 349.96 356.63 350.12C357.72 350.66 358.28 352.58 358.31 352.66C358.33 352.72 358.31 352.79 358.27 352.83C358.24 352.86 358.2 352.88 358.17 352.89ZM355.8 350.36C355.77 350.37 355.73 350.38 355.7 350.39C355.39 350.5 355.39 350.63 355.39 350.67C355.4 351.19 356.84 352.14 357.85 352.46C357.65 351.91 357.16 350.79 356.45 350.44C356.24 350.33 356.02 350.31 355.8 350.36Z" fill="#407BFF"/>
        <path d="M343.78 144.42L333.35 149.22L332.14 152.16L335.99 154.75C335.99 154.75 343.18 153.97 345.23 149.35L343.78 144.42Z" fill="#E58A7B"/>
        <path d="M344.22 150.64C343.57 146.77 342.29 145 342.28 144.98L343.92 143.75C343.98 143.83 345.5 145.88 346.24 150.3L344.22 150.64Z" fill="#263238"/>
        <path d="M346 145.84C346.34 146.68 345.79 147.69 344.79 148.09C343.78 148.5 342.69 148.15 342.35 147.31C342.01 146.47 342.56 145.46 343.56 145.06C344.57 144.65 345.66 145 346 145.84Z" fill="#263238"/>
        <path d="M326.3 153.1L327.69 154.5L337.05 150.5L333.35 149.22L326.3 153.1Z" fill="#E58A7B"/>
        <path opacity="0.2" d="M366.49 335.87C366.55 335.85 367.91 339.7 367.91 339.7L354.07 345.51L351.89 341.45L366.49 335.87Z" fill="black"/>
        <path opacity="0.2" d="M394.78 340.72C394.84 340.72 395.24 344.57 395.24 344.57H380.08L379 340.15L394.78 340.72Z" fill="black"/>
        <path d="M392.44 104.49C395.19 113.36 384.48 125.47 384.48 125.47L369.63 119.41C369.63 119.41 371.72 112.97 375.7 104.34C380.23 94.52 389.66 95.54 392.44 104.49Z" fill="#407BFF"/>
        <path opacity="0.2" d="M392.44 104.49C395.19 113.36 384.48 125.47 384.48 125.47L369.63 119.41C369.63 119.41 371.72 112.97 375.7 104.34C380.23 94.52 389.66 95.54 392.44 104.49Z" fill="black"/>
        <path d="M244.88 15.62H238.49V16.65H244.88V15.62Z" fill="#407BFF"/>
        <path d="M327.602 56.3726L326.829 73.5355L327.858 73.5818L328.631 56.419L327.602 56.3726Z" fill="#407BFF"/>
        <path d="M325.61 20.24H207.61L196.63 265.96H314.63L325.61 20.24Z" fill="#407BFF"/>
        <path opacity="0.56" d="M322.09 23.61H204.09L193.11 269.33H311.11L322.09 23.61Z" fill="#FAFAFA"/>
        <path opacity="0.07" d="M318.57 26.98H200.57L189.58 272.7H307.58L318.57 26.98Z" fill="#407BFF"/>
        <path d="M305.14 134.15H204.42L203.58 152.96H304.3L305.14 134.15Z" fill="white"/>
        <path d="M259.81 120.44H205.03L204.66 128.85H259.44L259.81 120.44Z" fill="#407BFF"/>
        <path d="M302.87 184.9H202.15L201.31 203.7H302.03L302.87 184.9Z" fill="white"/>
        <path opacity="0.47" d="M284.4 229.08H216.67L215.66 251.62H283.39L284.4 229.08Z" fill="#407BFF"/>
        <path d="M279.87 255.11H212.14C212.11 255.11 212.08 255.1 212.05 255.07C212.03 255.05 212.02 255.01 212.02 254.98L213.03 232.44C213.03 232.38 213.09 232.33 213.15 232.33H280.88C280.91 232.33 280.94 232.34 280.97 232.37C280.99 232.39 281 232.43 281 232.46L279.99 255C279.98 255.06 279.93 255.11 279.87 255.11ZM212.26 254.88H279.75L280.75 232.58H213.26L212.26 254.88Z" fill="white"/>
        <path d="M247.98 171.18H202.76L202.39 179.59H247.6L247.98 171.18Z" fill="#407BFF"/>
        <path d="M283.11 73.43C282.86 79.06 280.82 84.26 277.55 88.48C272.61 94.88 264.87 99.04 256.35 99.04C247.83 99.04 240.47 94.88 236.11 88.48C233.22 84.26 231.64 79.06 231.89 73.43C232.52 59.28 244.5 47.81 258.64 47.81C272.78 47.81 283.74 59.28 283.11 73.43Z" fill="white"/>
        <path d="M285.52 53.17C285.45 54.67 284.91 56.05 284.04 57.17C282.73 58.87 280.67 59.98 278.41 59.98C276.15 59.98 274.19 58.87 273.03 57.17C272.26 56.05 271.84 54.67 271.91 53.17C272.08 49.41 275.26 46.36 279.02 46.36C282.77 46.36 285.68 49.41 285.52 53.17Z" fill="#407BFF"/>
        <path d="M215.27 143.56C215.2 145.22 213.79 146.57 212.12 146.57C210.46 146.57 209.17 145.22 209.24 143.56C209.31 141.9 210.72 140.55 212.39 140.55C214.05 140.54 215.34 141.89 215.27 143.56Z" fill="#263238"/>
        <path d="M228.75 143.56C228.68 145.22 227.27 146.57 225.6 146.57C223.94 146.57 222.65 145.22 222.72 143.56C222.79 141.9 224.2 140.55 225.87 140.55C227.54 140.55 228.83 141.89 228.75 143.56Z" fill="#263238"/>
        <path d="M242.24 143.56C242.17 145.22 240.76 146.57 239.09 146.57C237.43 146.57 236.14 145.22 236.21 143.56C236.28 141.9 237.69 140.55 239.36 140.55C241.03 140.54 242.31 141.89 242.24 143.56Z" fill="#263238"/>
        <path d="M213 194.3C212.93 195.96 211.52 197.31 209.85 197.31C208.19 197.31 206.9 195.96 206.97 194.3C207.04 192.64 208.45 191.29 210.12 191.29C211.78 191.29 213.07 192.64 213 194.3Z" fill="#263238"/>
        <path d="M226.48 194.3C226.41 195.96 225 197.31 223.33 197.31C221.67 197.31 220.38 195.96 220.45 194.3C220.52 192.64 221.93 191.29 223.6 191.29C225.27 191.29 226.56 192.64 226.48 194.3Z" fill="#263238"/>
        <path d="M239.97 194.3C239.9 195.96 238.49 197.31 236.82 197.31C235.16 197.31 233.87 195.96 233.94 194.3C234.01 192.64 235.42 191.29 237.09 191.29C238.76 191.29 240.05 192.64 239.97 194.3Z" fill="#263238"/>
        <path d="M253.46 194.3C253.39 195.96 251.98 197.31 250.31 197.31C248.65 197.31 247.36 195.96 247.43 194.3C247.5 192.64 248.91 191.29 250.58 191.29C252.24 191.29 253.53 192.64 253.46 194.3Z" fill="#263238"/>
        <path d="M266.95 194.3C266.88 195.96 265.47 197.31 263.8 197.31C262.14 197.31 260.85 195.96 260.92 194.3C260.99 192.64 262.4 191.29 264.07 191.29C265.73 191.29 267.02 192.64 266.95 194.3Z" fill="#263238"/>
        <path d="M264.946 72.1071C269.131 68.0144 269.354 61.4539 265.443 57.4537C261.531 53.4535 254.968 53.5285 250.782 57.6212C246.596 61.7139 246.373 68.2745 250.285 72.2746C254.196 76.2748 260.76 76.1998 264.946 72.1071Z" fill="#407BFF"/>
        <path d="M277.54 88.48C272.6 94.88 264.86 99.04 256.34 99.04C247.82 99.04 240.46 94.88 236.1 88.48C240.96 83.64 248.65 80.5 257.17 80.5C265.7 80.5 273.11 83.64 277.54 88.48Z" fill="#407BFF"/>
        <path opacity="0.1" d="M264.946 72.1071C269.131 68.0144 269.354 61.4539 265.443 57.4537C261.531 53.4535 254.968 53.5285 250.782 57.6212C246.596 61.7139 246.373 68.2745 250.285 72.2746C254.196 76.2748 260.76 76.1998 264.946 72.1071Z" fill="white"/>
        <path opacity="0.1" d="M277.54 88.48C272.6 94.88 264.86 99.04 256.34 99.04C247.82 99.04 240.46 94.88 236.1 88.48C240.96 83.64 248.65 80.5 257.17 80.5C265.7 80.5 273.11 83.64 277.54 88.48Z" fill="white"/>
        <path d="M130.41 157.49C129.46 159.57 128.47 161.85 127.59 164.08C126.71 166.33 125.83 168.58 125.06 170.87C123.57 175.44 122.17 180.05 121.49 184.67L121.26 186.14C121.24 186.32 121.26 186.57 121.33 186.89C121.48 187.53 121.87 188.38 122.43 189.21C123.56 190.9 125.15 192.61 126.87 194.19C128.59 195.8 130.45 197.34 132.39 198.81C134.31 200.29 136.33 201.73 138.31 203.08L136.45 206.59C131.69 204.51 127.26 202.02 122.97 198.9C120.86 197.29 118.78 195.56 116.93 193.22C116.02 192.04 115.13 190.71 114.54 188.95C114.26 188.07 114.06 187.08 114.06 186.01C114.07 185.76 114.08 185.42 114.1 185.25L114.15 184.75L114.25 183.76C114.79 178.46 115.97 173.36 117.52 168.42C118.3 165.95 119.13 163.51 120.08 161.11C121.05 158.7 122.01 156.38 123.22 153.95L130.41 157.49Z" fill="#E58A7B"/>
        <path d="M136.91 202.48L143.98 198.9L142.15 206.67C142.15 206.67 137.3 208.03 135.04 205.67L136.91 202.48Z" fill="#E58A7B"/>
        <path d="M150.45 200.17L148.57 206.59L142.15 206.66L143.98 198.89L150.45 200.17Z" fill="#E58A7B"/>
        <path d="M160.43 120.05C160.43 120.05 161.04 122.3 162.01 124C161.17 124.78 160.43 124.51 160.43 124.51V120.05Z" fill="#DF5753"/>
        <path d="M160.22 120.11C160.634 120.11 160.97 119.595 160.97 118.96C160.97 118.325 160.634 117.81 160.22 117.81C159.806 117.81 159.47 118.325 159.47 118.96C159.47 119.595 159.806 120.11 160.22 120.11Z" fill="#263238"/>
        <path d="M160.04 117.85L161.56 117.41C161.56 117.41 160.78 118.6 160.04 117.85Z" fill="#263238"/>
        <path d="M140.9 127.38C141.81 132.04 142.72 140.57 139.47 143.67C139.47 143.67 140.74 148.39 149.39 148.39C158.9 148.39 153.94 143.67 153.94 143.67C148.75 142.43 148.88 138.58 149.79 134.96L140.9 127.38Z" fill="#E58A7B"/>
        <path d="M138.37 116.79C138.85 124.56 138.88 127.86 142.81 131.85C148.71 137.85 158.16 135.56 160.01 127.81C161.68 120.83 160.62 109.29 153.01 106.2C145.52 103.15 137.9 109.02 138.37 116.79Z" fill="#E58A7B"/>
        <path d="M139.14 108C135.24 109.42 130.04 108.36 132.08 120.39C134.24 133.13 130.92 137.32 130.92 137.32C130.92 137.32 145.71 140.47 160.81 137.13C160.81 137.13 156.2 129.07 157.49 123.19C159.14 115.69 157.83 112.91 157.83 112.91C157.83 112.91 144.62 106 139.14 108Z" fill="#263238"/>
        <path d="M155.64 120.84C155.62 122.38 156.16 123.93 156.86 125.01C157.91 126.63 159.16 125.97 159.48 124.29C159.76 122.78 159.55 120.11 158.2 119.07C156.88 118.05 155.66 119.08 155.64 120.84Z" fill="#E58A7B"/>
        <path d="M135.75 109.36C134.62 106.22 139.97 101.38 151.27 103.39C162.57 105.4 163.06 114.8 163.06 114.8L160.77 112.09L160.87 114.95L149.26 117.18L135.75 109.36Z" fill="#263238"/>
        <path d="M136.71 144.2C136.55 143.24 137.2 142.33 138.16 142.18C141.68 141.6 149.67 140.42 153.7 140.98C156.69 141.39 157.48 143.14 157.61 144.57C157.7 145.63 156.83 146.52 155.77 146.47L138.38 145.68C137.54 145.65 136.85 145.03 136.71 144.2Z" fill="#407BFF"/>
        <path opacity="0.6" d="M136.71 144.2C136.55 143.24 137.2 142.33 138.16 142.18C141.68 141.6 149.67 140.42 153.7 140.98C156.69 141.39 157.48 143.14 157.61 144.57C157.7 145.63 156.83 146.52 155.77 146.47L138.38 145.68C137.54 145.65 136.85 145.03 136.71 144.2Z" fill="black"/>
        <path d="M146.76 318.91L153.21 323.38L164 308.76L157.55 304.28L146.76 318.91Z" fill="#E58A7B"/>
        <path d="M131.72 318.61L138.53 322.5L148.08 307.03L141.27 303.15L131.72 318.61Z" fill="#E58A7B"/>
        <path d="M163.99 308.76L158.43 316.3L151.98 311.82L157.55 304.28L163.99 308.76Z" fill="#CF6F64"/>
        <path d="M141.26 303.15L148.08 307.03L143.16 315L136.34 311.12L141.26 303.15Z" fill="#CF6F64"/>
        <path d="M152.2 193.04C152.2 193.04 177.38 224.78 172.66 255.12C168.84 279.63 146.75 312.82 146.75 312.82L136.36 307.66C136.36 307.66 147.65 285.6 155.06 262.22C158.17 252.41 156.84 241.61 151.03 233.12C138.27 214.49 117.84 225.57 131.59 193.04H152.2V193.04Z" fill="#407BFF"/>
        <path opacity="0.6" d="M152.2 193.04C152.2 193.04 177.38 224.78 172.66 255.12C168.84 279.63 146.75 312.82 146.75 312.82L136.36 307.66C136.36 307.66 147.65 285.6 155.06 262.22C158.17 252.41 156.84 241.61 151.03 233.12C138.27 214.49 117.84 225.57 131.59 193.04H152.2V193.04Z" fill="black"/>
        <path opacity="0.4" d="M164.55 213.43L160.89 209.79C160.89 210.08 167.98 253.84 169.97 266.14C171.17 262.37 172.1 258.65 172.65 255.11C174.97 240.26 170.11 225.06 164.55 213.43Z" fill="black"/>
        <path d="M163.44 193.04C163.44 193.04 193.76 232.92 194.61 256.83C195.32 276.87 161.58 315.58 161.58 315.58L151.78 309.24C151.78 309.24 171.51 281.72 176.48 259.23C174.59 236.97 133.94 193.04 133.94 193.04H163.44V193.04Z" fill="#407BFF"/>
        <path opacity="0.6" d="M163.44 193.04C163.44 193.04 193.76 232.92 194.61 256.83C195.32 276.87 161.58 315.58 161.58 315.58L151.78 309.24C151.78 309.24 171.51 281.72 176.48 259.23C174.59 236.97 133.94 193.04 133.94 193.04H163.44V193.04Z" fill="black"/>
        <path d="M125.93 145.46C122.68 146.23 119.58 158.01 119.58 158.01L132.24 166.46C132.24 166.46 136.46 157.14 134.99 153.06C133.46 148.82 130.03 144.49 125.93 145.46Z" fill="#407BFF"/>
        <path opacity="0.2" d="M128.41 153.04L127.53 163.31L132.24 166.47C132.24 166.47 134.45 161.59 135.11 157.33L128.41 153.04Z" fill="black"/>
        <path d="M167.19 145.68C167.19 145.68 170.93 147 163.44 193.03C150.8 193.03 137.73 193.03 131.58 193.03C132.11 180.06 132.13 172.07 125.93 145.45C125.93 145.45 132.61 144 139.46 143.67C144.82 143.41 149.21 143.24 153.93 143.67C160.15 144.24 167.19 145.68 167.19 145.68Z" fill="#407BFF"/>
        <path d="M170.43 152.99C171.15 154.99 171.92 157.14 172.71 159.22C173.47 161.32 174.27 163.42 175.08 165.51L177.53 171.79L178.15 173.36L178.46 174.14L178.62 174.53C178.65 174.6 178.64 174.59 178.63 174.59C178.59 174.57 178.55 174.37 177.93 173.97C177.63 173.78 177.12 173.6 176.62 173.59C176.13 173.57 175.73 173.69 175.51 173.79C175.06 174.01 175.05 174.1 175.06 174.08C175.09 174.07 175.18 173.98 175.28 173.85C175.72 173.33 176.24 172.42 176.71 171.52C177.18 170.6 177.63 169.62 178.08 168.63C178.96 166.64 179.77 164.56 180.59 162.47C181.4 160.38 182.16 158.26 182.92 156.13L185.2 149.75L189.05 150.72C188.29 155.29 187.3 159.76 186.13 164.24C185.56 166.49 184.89 168.72 184.13 170.97C183.75 172.1 183.33 173.22 182.84 174.37C182.33 175.53 181.83 176.66 180.94 177.99C180.71 178.33 180.44 178.68 180.07 179.07C179.68 179.45 179.22 179.92 178.25 180.36C177.76 180.57 177.09 180.75 176.31 180.72C175.53 180.7 174.75 180.42 174.2 180.08C173.09 179.37 172.71 178.7 172.38 178.19C172.23 177.94 172.1 177.67 172.01 177.49L171.82 177.1L171.44 176.32L170.68 174.77C169.69 172.69 168.72 170.6 167.81 168.48C166.9 166.36 166.02 164.23 165.16 162.08C164.34 159.9 163.53 157.79 162.8 155.47L170.43 152.99Z" fill="#E58A7B"/>
        <path d="M167.19 145.68C171.02 146.59 175.32 157.91 175.32 157.91L163.94 167.61C163.94 167.61 156.56 155.27 158.06 151.2C159.61 146.96 162.19 144.49 167.19 145.68Z" fill="#407BFF"/>
        <path d="M186.98 146.24L190.97 142.9L193.75 147.23L191.7 150.85C191.7 150.85 188.44 153.83 185.55 152.32C184.63 150.19 185.2 147.72 186.98 146.24Z" fill="#E58A7B"/>
        <path d="M198.22 142.91L197.92 143.99L191.59 145.06L190.97 142.9L198.22 142.91Z" fill="#E58A7B"/>
        <path d="M162.4 316.1L150.98 308.71L153.03 305.16L165.86 313.05L162.4 316.1Z" fill="#407BFF"/>
        <path d="M142.98 321.97C142.07 321.97 140.88 321.39 140.15 320.99C140.08 320.95 140.05 320.88 140.06 320.81C140.07 320.74 140.12 320.67 140.19 320.65C140.5 320.55 143.21 319.72 143.97 320.37C144.09 320.47 144.23 320.66 144.18 320.97C144.12 321.39 143.93 321.68 143.62 321.84C143.44 321.93 143.22 321.97 142.98 321.97ZM140.73 320.88C141.97 321.51 142.97 321.75 143.45 321.51C143.65 321.41 143.77 321.22 143.81 320.93C143.83 320.77 143.78 320.7 143.72 320.66C143.33 320.32 141.83 320.58 140.73 320.88Z" fill="#263238"/>
        <path d="M140.25 321.02C140.2 321.02 140.15 321 140.12 320.96C140.07 320.91 140.06 320.84 140.07 320.78C140.1 320.69 140.72 318.52 141.75 318.02C142.02 317.89 142.3 317.88 142.57 317.99C143 318.17 143.04 318.49 143.03 318.66C142.96 319.56 141.13 320.8 140.29 321.01C140.28 321.02 140.26 321.02 140.25 321.02ZM142.19 318.29C142.1 318.29 142.01 318.31 141.91 318.36C141.3 318.65 140.78 319.83 140.54 320.54C141.42 320.17 142.62 319.19 142.66 318.64C142.67 318.55 142.65 318.44 142.43 318.34C142.35 318.31 142.26 318.29 142.19 318.29Z" fill="#263238"/>
        <path d="M157.27 326.29C156.14 326.29 154.57 324.84 153.71 323.95C153.65 323.89 153.64 323.81 153.68 323.74C153.72 323.67 153.81 323.63 153.87 323.64C154.27 323.69 157.74 324.16 158.24 325.14C158.33 325.33 158.33 325.53 158.22 325.73C158.04 326.05 157.77 326.24 157.43 326.28C157.37 326.29 157.32 326.29 157.27 326.29ZM154.37 324.09C155.63 325.32 156.74 326 157.37 325.91C157.59 325.88 157.76 325.76 157.88 325.54C157.93 325.46 157.93 325.38 157.89 325.31C157.63 324.78 155.78 324.32 154.37 324.09Z" fill="#263238"/>
        <path d="M154.48 324.06C154.22 324.06 153.99 324.04 153.81 324.01C153.75 324 153.69 323.95 153.67 323.89C153.65 323.83 153.66 323.76 153.7 323.71C153.76 323.64 155.11 322.01 156.39 321.9C156.79 321.87 157.13 321.98 157.42 322.22C157.81 322.56 157.79 322.86 157.69 323.05C157.38 323.72 155.65 324.06 154.48 324.06ZM154.22 323.69C155.34 323.75 157.12 323.38 157.36 322.89C157.38 322.85 157.44 322.73 157.18 322.5C156.96 322.32 156.71 322.24 156.43 322.26C155.58 322.34 154.65 323.23 154.22 323.69Z" fill="#263238"/>
        <path d="M140.52 319.97L132.04 317.57C131.73 317.48 131.42 317.63 131.29 317.92L128.43 324.36C128.13 325.03 128.55 325.86 129.26 326.04C132.23 326.83 133.71 327.05 137.44 328.11C139.73 328.76 143.02 329.94 146.19 330.84C149.29 331.72 150.41 328.65 149.17 327.99C143.61 325.04 143.17 323.03 141.65 320.79C141.38 320.38 140.97 320.09 140.52 319.97Z" fill="#407BFF"/>
        <path d="M153.94 322.79L146.7 317.76C146.44 317.58 146.1 317.61 145.88 317.84L141.08 323C140.58 323.53 140.7 324.45 141.32 324.86C143.87 326.57 145.19 327.27 148.38 329.48C150.34 330.84 154.25 333.86 156.95 335.73C159.6 337.57 161.66 335.03 160.7 334.01C156.4 329.42 155.46 326.54 154.75 323.93C154.62 323.46 154.33 323.06 153.94 322.79Z" fill="#407BFF"/>
        <path d="M148.07 313.48L135.02 306.99L136.37 303.46L150.31 310.29L148.07 313.48Z" fill="#407BFF"/>
        <path d="M131.1 191.17L130 194.02C129.89 194.24 130.15 194.47 130.52 194.47H163.6C163.89 194.47 164.13 194.33 164.14 194.15L164.43 191.3C164.45 191.1 164.2 190.94 163.89 190.94H131.62C131.39 190.93 131.18 191.02 131.1 191.17Z" fill="#407BFF"/>
        <path opacity="0.4" d="M131.1 191.17L130 194.02C129.89 194.24 130.15 194.47 130.52 194.47H163.6C163.89 194.47 164.13 194.33 164.14 194.15L164.43 191.3C164.45 191.1 164.2 190.94 163.89 190.94H131.62C131.39 190.93 131.18 191.02 131.1 191.17Z" fill="white"/>
        <path d="M136.31 194.77H135.45C135.28 194.77 135.15 194.68 135.16 194.57L135.57 190.86C135.58 190.75 135.73 190.66 135.9 190.66H136.76C136.93 190.66 137.06 190.75 137.05 190.86L136.64 194.57C136.63 194.68 136.48 194.77 136.31 194.77Z" fill="#407BFF"/>
        <path d="M156.71 194.77H155.85C155.68 194.77 155.55 194.68 155.56 194.57L155.97 190.86C155.98 190.75 156.13 190.66 156.3 190.66H157.16C157.33 190.66 157.46 190.75 157.45 190.86L157.04 194.57C157.04 194.68 156.89 194.77 156.71 194.77Z" fill="#407BFF"/>
        <path d="M135.55 364.13C150.346 364.13 162.34 363.261 162.34 362.19C162.34 361.119 150.346 360.25 135.55 360.25C120.754 360.25 108.76 361.119 108.76 362.19C108.76 363.261 120.754 364.13 135.55 364.13Z" fill="#F5F5F5"/>
        <path d="M151.87 359.45C147.13 358.07 141.91 356.3 138.69 354.42C138.6 354.37 138.51 354.33 138.41 354.28V332.85H147.94C149.52 332.85 150.79 331.57 150.79 330C150.79 328.42 149.51 327.15 147.94 327.15H138.41V229.33H132.7V327.15H123.17C121.59 327.15 120.32 328.43 120.32 330C120.32 331.58 121.6 332.85 123.17 332.85H132.7V354.28C132.61 354.33 132.51 354.37 132.42 354.42C129.19 356.31 123.98 358.08 119.24 359.45C117.68 359.9 118.01 362.19 119.63 362.19H135.55H151.47C153.1 362.19 153.43 359.9 151.87 359.45Z" fill="#E0E0E0"/>
        <path d="M153.34 240.29H117.78C114.93 240.29 112.6 237.96 112.6 235.11V224.54C112.6 221.69 114.93 219.36 117.78 219.36H153.34C156.19 219.36 158.52 221.69 158.52 224.54V235.11C158.52 237.96 156.19 240.29 153.34 240.29Z" fill="#407BFF"/>
        <path d="M117.45 240.29V242.11C117.45 243.61 119.08 244.84 121.08 244.84H150.04C152.04 244.84 153.67 243.61 153.67 242.11V240.29H117.45Z" fill="#407BFF"/>
        <path opacity="0.3" d="M117.45 240.29V242.11C117.45 243.61 119.08 244.84 121.08 244.84H150.04C152.04 244.84 153.67 243.61 153.67 242.11V240.29H117.45Z" fill="white"/>
    </g>
    <defs>
        <clipPath id="clip0">
            <rect width="500" height="372.61" fill="white"/>
        </clipPath>
    </defs>
</svg>
